<svg width="24" height="24" viewBox="0 0 24 24" fill="none" xmlns="http://www.w3.org/2000/svg">
<path d="M12.002 1.59961C17.7457 1.59961 22.4023 6.25624 22.4023 12C22.4023 17.7438 17.7457 22.4004 12.002 22.4004C6.25819 22.4004 1.60156 17.7438 1.60156 12C1.60156 6.25624 6.25819 1.59961 12.002 1.59961ZM12.002 3.40039C7.2523 3.40039 3.40234 7.25035 3.40234 12C3.40234 16.7496 7.2523 20.5996 12.002 20.5996C16.7516 20.5996 20.6016 16.7496 20.6016 12C20.6016 7.25035 16.7516 3.40039 12.002 3.40039ZM8.45215 10.75C8.72818 10.7501 8.95215 10.9739 8.95215 11.25V12.75C8.95215 13.0261 8.72818 13.2499 8.45215 13.25L6.95215 13.25C6.67601 13.25 6.45215 13.0261 6.45215 12.75V11.25C6.45215 10.9739 6.67601 10.75 6.95215 10.75L8.45215 10.75ZM12.752 10.75C13.028 10.7501 13.252 10.9739 13.252 11.25V12.75C13.252 13.0261 13.028 13.2499 12.752 13.25H11.252C10.9758 13.25 10.752 13.0261 10.752 12.75V11.25C10.752 10.9739 10.9758 10.75 11.252 10.75H12.752ZM17.0527 10.75C17.3288 10.7501 17.5527 10.9739 17.5527 11.25V12.75C17.5527 13.0261 17.3288 13.2499 17.0527 13.25H15.5527C15.2766 13.25 15.0527 13.0261 15.0527 12.75V11.25C15.0527 10.9739 15.2766 10.75 15.5527 10.75H17.0527Z" fill="white"/>
</svg>
