<svg width="24" height="24" viewBox="0 0 24 24" fill="none" xmlns="http://www.w3.org/2000/svg">
<path d="M17.2298 13.7841C17.1162 14.135 16.9787 14.473 16.8214 14.7968M15.3316 16.9443C14.3975 18.2212 13.0871 18.8871 11.9894 19.1514" stroke="black" stroke-width="1.5" stroke-linecap="round"/>
<path d="M10 11C10 11 9.5625 10 8.25 10C6.9375 10 6.5 11 6.5 11" stroke="black" stroke-width="1.5" stroke-linecap="round"/>
<path d="M17.5 11C17.5 11 17.0625 10 15.75 10C14.4375 10 14 11 14 11" stroke="black" stroke-width="1.5" stroke-linecap="round"/>
<path d="M19.9204 12.2879C19.3544 17.4697 15.3922 21.5 11.9961 21.5C8.60001 21.5 4.63788 18.0455 4.07185 12.2879C3.45231 5.98598 6.90195 2.5 11.9961 2.5C17.0903 2.5 20.5782 6.26595 19.9204 12.2879Z" stroke="black" stroke-width="1.5"/>
</svg>
