<svg width="24" height="24" viewBox="0 0 24 24" fill="none" xmlns="http://www.w3.org/2000/svg">
<path d="M14.6016 6.2002C14.6016 4.76426 13.4379 3.60059 12.002 3.60059C10.566 3.60059 9.40234 4.76426 9.40234 6.2002V11.2002C9.40234 12.6361 10.566 13.7998 12.002 13.7998C13.4379 13.7998 14.6016 12.6361 14.6016 11.2002V6.2002ZM16.4023 11.2002C16.4023 13.6302 14.432 15.6006 12.002 15.6006C9.5719 15.6006 7.60156 13.6302 7.60156 11.2002V6.2002C7.60156 3.77014 9.5719 1.7998 12.002 1.7998C14.432 1.7998 16.4023 3.77014 16.4023 6.2002V11.2002Z" fill="white"/>
<path d="M3.60156 11.5C3.60156 11.0029 4.0049 10.5996 4.50195 10.5996C4.99901 10.5996 5.40234 11.0029 5.40234 11.5C5.40234 14.2434 8.00418 17.0996 12.002 17.0996C15.9997 17.0996 18.6016 14.2434 18.6016 11.5C18.6016 11.0029 19.0049 10.5996 19.502 10.5996C19.999 10.5996 20.4023 11.0029 20.4023 11.5C20.4023 15.384 16.8407 18.9004 12.002 18.9004C7.16317 18.9004 3.60156 15.384 3.60156 11.5Z" fill="white"/>
<path d="M11.1016 21.2998V18.5C11.1016 18.0029 11.5049 17.5996 12.002 17.5996C12.499 17.5996 12.9023 18.0029 12.9023 18.5V21.2998C12.9023 21.7969 12.499 22.2002 12.002 22.2002C11.5049 22.2002 11.1016 21.7969 11.1016 21.2998Z" fill="white"/>
</svg>
