<svg width="24" height="24" viewBox="0 0 24 24" fill="none" xmlns="http://www.w3.org/2000/svg">
<path d="M6.51343 2.4937C7.29265 2.34164 8.05563 2.39849 8.77905 2.48882C10.2553 2.67318 11.6576 2.9914 13.488 2.53374C13.8897 2.43361 14.2967 2.67804 14.3972 3.07964C14.4976 3.48117 14.2536 3.88795 13.8523 3.98882C11.6831 4.53117 9.93934 4.14519 8.59351 3.9771C7.90641 3.8913 7.3383 3.86073 6.80151 3.96538C6.28328 4.06656 5.75215 4.30336 5.1687 4.82182C4.18437 5.69677 3.77515 6.62776 3.67554 7.52788C3.57375 8.44911 3.79068 9.39714 4.16187 10.2837C4.40999 10.8763 4.67927 11.4675 4.95483 12.0728C5.22862 12.6742 5.50855 13.2892 5.76636 13.9126C6.28176 15.1591 6.72649 16.4744 6.89331 17.8755L7.06909 19.355C7.1262 19.8348 7.53324 20.1957 8.01636 20.1958C8.40626 20.1957 8.75729 19.9583 8.9021 19.5962L10.4636 15.691L10.5808 15.3423C10.8088 14.6587 11.449 14.197 12.1697 14.1968C12.8905 14.197 13.5306 14.6585 13.7585 15.3423L13.8748 15.691L15.4626 19.6597C15.5921 19.9833 15.9062 20.1956 16.2546 20.1958C16.6833 20.1957 17.0621 19.8747 17.1326 19.4302C17.4662 17.3258 18.228 13.196 19.4441 10.6148C19.6206 10.2406 20.0677 10.0795 20.4421 10.2554C20.8164 10.4319 20.9774 10.879 20.8015 11.2535C19.6893 13.6141 18.9511 17.5397 18.614 19.6656C18.4313 20.8174 17.4422 21.6957 16.2546 21.6958C15.2929 21.6956 14.4273 21.1103 14.0701 20.2173L12.4734 16.2242C12.4727 16.2225 12.4721 16.2209 12.4714 16.2193C12.4669 16.2076 12.4618 16.1961 12.4578 16.1841L12.3357 15.816C12.3118 15.7449 12.2447 15.697 12.1697 15.6968C12.0948 15.697 12.0276 15.745 12.0037 15.816L11.8816 16.1841C11.8797 16.1897 11.8768 16.1952 11.8748 16.2007C11.8719 16.2086 11.8701 16.2173 11.8669 16.2251L10.2947 20.1539C9.922 21.0852 9.01952 21.6957 8.01636 21.6958C6.77352 21.6957 5.72692 20.7668 5.57983 19.5328L5.40405 18.0523C5.26058 16.8473 4.87237 15.6775 4.37964 14.4859C4.13337 13.8903 3.86453 13.2978 3.5896 12.6939C3.31649 12.094 3.03673 11.4815 2.77808 10.8638C2.34702 9.83434 2.04525 8.62097 2.18433 7.36284C2.32589 6.08343 2.91792 4.81519 4.17163 3.70073C4.94299 3.0152 5.71547 2.64954 6.51343 2.4937Z" fill="black"/>
<path d="M18.3241 1.82464C18.3998 1.68499 18.6002 1.68499 18.6759 1.82464L19.9154 4.1129C19.9344 4.14794 19.9634 4.17652 19.9987 4.19495L22.1602 5.32268C22.3035 5.39746 22.3035 5.60254 22.1602 5.67732L19.9987 6.80505C19.9634 6.82348 19.9344 6.85206 19.9154 6.8871L18.6759 9.17536C18.6002 9.31501 18.3998 9.31501 18.3241 9.17536L17.0846 6.8871C17.0656 6.85206 17.0366 6.82348 17.0013 6.80505L14.8398 5.67732C14.6965 5.60254 14.6965 5.39746 14.8398 5.32268L17.0013 4.19495C17.0366 4.17652 17.0656 4.14794 17.0846 4.1129L18.3241 1.82464Z" fill="black"/>
</svg>
