<svg width="24" height="24" viewBox="0 0 24 24" fill="none" xmlns="http://www.w3.org/2000/svg">
<g clip-path="url(#clip0_152_2927)">
<path d="M13.3662 7.94238C14.4045 7.53734 15.5606 7.55618 16.585 7.99512L21.2959 10.0146C21.375 10.0486 21.4079 10.0901 21.4248 10.124C21.4451 10.1651 21.4555 10.223 21.4443 10.2871C21.433 10.3514 21.4033 10.4028 21.3701 10.4346C21.3427 10.4607 21.2977 10.4892 21.2119 10.4941L15.9102 10.7969C15.1682 10.8393 14.4457 11.0523 13.7998 11.4199L6.24902 15.7178C4.68832 16.6061 2.75002 15.4794 2.75 13.6836C2.75 12.719 3.34169 11.8535 4.24023 11.5029L13.3662 7.94238Z" stroke="black" stroke-width="1.5"/>
<path d="M3 9C4.5 7.44234 9 5.10586 12 4.32703C15 3.5482 16.5 3.82703 19 5" stroke="black" stroke-width="1.5" stroke-linecap="round" stroke-dasharray="2.6 3.6"/>
<path d="M6 20.0001C8 19.0001 18 12.5682 20.5 15.0682" stroke="black" stroke-width="1.5" stroke-linecap="round" stroke-dasharray="2.6 3.6"/>
</g>
<defs>
<clipPath id="clip0_152_2927">
<rect width="24" height="24" fill="white"/>
</clipPath>
</defs>
</svg>
