<svg width="24" height="24" viewBox="0 0 24 24" fill="none" xmlns="http://www.w3.org/2000/svg">
<path d="M11.0898 21.5915V2.40866C11.0898 1.90385 11.4937 1.5 11.9985 1.5C12.5033 1.5 12.9072 1.90385 12.9072 2.40866V21.5915C12.9072 22.0963 12.5033 22.5002 11.9985 22.5002C11.4937 22.5002 11.0898 22.0963 11.0898 21.5915Z" fill="white"/>
<path d="M1.65234 9.22363L4.449 12.0203L1.65234 14.8271V9.22363Z" fill="white"/>
<path d="M7.55775 11.9996C7.55775 9.24334 5.39715 6.99188 2.67116 6.86062H2.40866L2.3178 6.85053C1.86346 6.80005 1.5 6.41639 1.5 5.94187C1.5 5.43705 1.90385 5.0332 2.40866 5.0332H2.77213C6.45726 5.22503 9.37507 8.2741 9.37507 11.9996C9.37507 15.7251 6.25533 18.966 2.40866 18.966C1.90385 18.966 1.5 18.5622 1.5 18.0574C1.5 17.5526 1.90385 17.1487 2.40866 17.1487C5.2558 17.1487 7.55775 14.8468 7.55775 11.9996Z" fill="white"/>
<path d="M22.3474 9.22396L19.5508 12.0206L22.3474 14.8173V9.21387V9.22396Z" fill="white"/>
<path d="M16.4423 11.9996C16.4423 9.24334 18.6029 6.99188 21.3289 6.86062H21.5914L21.6823 6.85053C22.1366 6.80005 22.5001 6.41639 22.5001 5.94187C22.5001 5.43705 22.0962 5.0332 21.5914 5.0332H21.2279C17.5428 5.22503 14.625 8.2741 14.625 11.9996C14.625 15.7251 17.7447 18.966 21.5914 18.966C22.0962 18.966 22.5001 18.5622 22.5001 18.0574C22.5001 17.5526 22.0962 17.1487 21.5914 17.1487C18.7443 17.1487 16.4423 14.8468 16.4423 11.9996Z" fill="white"/>
</svg>
