<svg width="24" height="24" viewBox="0 0 24 24" fill="none" xmlns="http://www.w3.org/2000/svg">
<g clip-path="url(#clip0_152_2928)">
<path d="M13.3662 7.94238C14.4045 7.53734 15.5606 7.55618 16.585 7.99512L21.2959 10.0146C21.375 10.0486 21.4079 10.0901 21.4248 10.124C21.4451 10.1651 21.4555 10.223 21.4443 10.2871C21.433 10.3514 21.4033 10.4028 21.3701 10.4346C21.3427 10.4607 21.2977 10.4892 21.2119 10.4941L15.9102 10.7969C15.1682 10.8393 14.4457 11.0523 13.7998 11.4199L6.24902 15.7178C4.68832 16.6061 2.75002 15.4794 2.75 13.6836C2.75 12.719 3.34169 11.8535 4.24023 11.5029L13.3662 7.94238Z" stroke="black" stroke-width="1.5"/>
<path d="M21.5 4.91617L18.3043 4.91621C17.8976 4.91621 17.661 4.45644 17.8975 4.12552L18.9965 2.58751" stroke="black" stroke-width="1.5" stroke-linecap="round"/>
<path d="M2.5 19.0838L5.69571 19.0838C6.10244 19.0838 6.33899 19.5436 6.10253 19.8745L5.00355 21.4125" stroke="black" stroke-width="1.5" stroke-linecap="round"/>
</g>
<defs>
<clipPath id="clip0_152_2928">
<rect width="24" height="24" fill="white"/>
</clipPath>
</defs>
</svg>
