<svg width="24" height="24" viewBox="0 0 24 24" fill="none" xmlns="http://www.w3.org/2000/svg">
<g clip-path="url(#clip0_152_2937)">
<path d="M2.5 12C4 10 8.5 7 11.5 6C14.5 5 19.5 5.9 20.5 7.5" stroke="black" stroke-width="1.5" stroke-linecap="round" stroke-dasharray="2.6 3.6"/>
<path d="M13.3662 10.9424C14.4045 10.5373 15.5606 10.5562 16.585 10.9951L21.2959 13.0146C21.375 13.0486 21.4079 13.0901 21.4248 13.124C21.4451 13.1651 21.4555 13.223 21.4443 13.2871C21.433 13.3514 21.4033 13.4028 21.3701 13.4346C21.3427 13.4607 21.2977 13.4892 21.2119 13.4941L15.9102 13.7969C15.1682 13.8393 14.4457 14.0523 13.7998 14.4199L6.24902 18.7178C4.68832 19.6061 2.75002 18.4794 2.75 16.6836C2.75 15.719 3.34169 14.8535 4.24023 14.5029L13.3662 10.9424Z" stroke="black" stroke-width="1.5"/>
</g>
<defs>
<clipPath id="clip0_152_2937">
<rect width="24" height="24" fill="white"/>
</clipPath>
</defs>
</svg>
