<svg width="20" height="20" viewBox="0 0 20 20" fill="none" xmlns="http://www.w3.org/2000/svg">
<path d="M14.5729 1.33301C15.1994 1.33302 15.6019 1.99886 15.311 2.55371L12.6751 7.57894H15.7911C16.5133 7.57894 16.8937 8.43464 16.4096 8.97054L8.13324 18.1299C7.53051 18.7966 6.44513 18.1685 6.72292 17.3136L8.61582 11.4893H4.29535C3.68727 11.4892 3.28386 10.8589 3.53851 10.3068L7.46022 1.81722L7.51882 1.71143C7.67109 1.47778 7.93282 1.33301 8.21706 1.33301H14.5729ZM5.33783 9.98942H9.53298C10.099 9.9895 10.5004 10.5416 10.3256 11.0799L9.11468 14.8055L14.2896 9.07878H11.5724C10.9459 9.07861 10.5432 8.41288 10.8342 7.85807L13.4702 2.83366H8.64349L5.33783 9.98942Z" fill="white"/>
</svg>
