<svg width="16" height="16" viewBox="0 0 16 16" fill="none" xmlns="http://www.w3.org/2000/svg">
<path d="M8 1.06641C11.8292 1.06641 14.9336 4.17083 14.9336 8C14.9336 11.8292 11.8292 14.9336 8 14.9336C4.17083 14.9336 1.06641 11.8292 1.06641 8C1.06641 4.17083 4.17083 1.06641 8 1.06641ZM8 2.26693C4.83357 2.26693 2.26693 4.83357 2.26693 8C2.26693 11.1664 4.83357 13.7331 8 13.7331C11.1664 13.7331 13.7331 11.1664 13.7331 8C13.7331 4.83357 11.1664 2.26693 8 2.26693ZM8 6.46615C8.33137 6.46615 8.60026 6.73504 8.60026 7.06641V11.0664C8.60026 11.3978 8.33137 11.6667 8 11.6667C7.66863 11.6667 7.39974 11.3978 7.39974 11.0664V7.06641C7.39974 6.73504 7.66863 6.46615 8 6.46615ZM8 4.39974C8.36819 4.39974 8.66667 4.69822 8.66667 5.06641C8.66667 5.4346 8.36819 5.73307 8 5.73307C7.63181 5.73307 7.33333 5.4346 7.33333 5.06641C7.33333 4.69822 7.63181 4.39974 8 4.39974Z" fill="#9C9C9C"/>
</svg>
