<svg width="24" height="24" viewBox="0 0 24 24" fill="none" xmlns="http://www.w3.org/2000/svg">
<path d="M13.75 17C13.75 17 13.3125 18 12 18C10.6875 18 10.25 17 10.25 17" stroke="black" stroke-width="1.5" stroke-linecap="round"/>
<path d="M22 16.5L19.0507 20.7133C18.8187 21.0447 19.0558 21.5 19.4603 21.5H22" stroke="black" stroke-width="1.5" stroke-linecap="round"/>
<path d="M2 16.5L4.94929 20.7133C5.18126 21.0447 4.94418 21.5 4.53967 21.5H2" stroke="black" stroke-width="1.5" stroke-linecap="round"/>
<path d="M19.9204 12.2879C19.3544 17.4697 15.3922 21.5 11.9961 21.5C8.60001 21.5 4.63788 18.0455 4.07185 12.2879C3.45231 5.98598 6.90195 2.5 11.9961 2.5C17.0903 2.5 20.5782 6.26595 19.9204 12.2879Z" stroke="black" stroke-width="1.5"/>
</svg>
