<svg width="20" height="20" viewBox="0 0 20 20" fill="none" xmlns="http://www.w3.org/2000/svg">
<path d="M4.20964 6.198C4.4687 5.87483 4.94032 5.8226 5.26351 6.08162C5.5866 6.34063 5.6387 6.81232 5.37988 7.1355C4.56777 8.14857 4.08268 9.43347 4.08268 10.8334C4.08268 14.1011 6.73134 16.7498 9.99902 16.7498C13.2667 16.7498 15.9154 14.1011 15.9154 10.8334C15.9154 9.52112 15.4894 8.31012 14.7671 7.32918L14.6182 7.1355L14.5734 7.07365C14.3668 6.75454 14.4315 6.32452 14.7345 6.08162C15.0376 5.83875 15.4715 5.86906 15.738 6.14022L15.7884 6.198L15.9748 6.4397C16.8803 7.66942 17.416 9.18981 17.416 10.8334C17.416 14.9295 14.0951 18.2504 9.99902 18.2504C5.90291 18.2504 2.58203 14.9295 2.58203 10.8334C2.58203 9.08024 3.19193 7.46758 4.20964 6.198ZM9.99902 1.74976C10.4132 1.74976 10.7493 2.08587 10.7493 2.50008V9.16675C10.7493 9.58096 10.4132 9.91707 9.99902 9.91707C9.58481 9.91707 9.2487 9.58096 9.2487 9.16675V2.50008C9.2487 2.08587 9.58481 1.74976 9.99902 1.74976Z" fill="#F63C55"/>
</svg>
