<svg width="24" height="24" viewBox="0 0 24 24" fill="none" xmlns="http://www.w3.org/2000/svg">
<path d="M3.5 2.5L5.77411 5.68375C5.86866 5.81613 5.77404 6 5.61136 6L3 6" stroke="black" stroke-width="1.5" stroke-linecap="round"/>
<path d="M20.5 2.5L18.2259 5.68375C18.1313 5.81613 18.226 6 18.3886 6L21 6" stroke="black" stroke-width="1.5" stroke-linecap="round"/>
<path d="M3.5 21.5L5.77411 18.3162C5.86866 18.1839 5.77404 18 5.61136 18L3 18" stroke="black" stroke-width="1.5" stroke-linecap="round"/>
<path d="M20.5 21.5L18.2259 18.3162C18.1313 18.1839 18.226 18 18.3886 18L21 18" stroke="black" stroke-width="1.5" stroke-linecap="round"/>
<path d="M7.77764 3.5C8.97407 2.84014 10.4049 2.5 11.9961 2.5C13.5434 2.5 14.9425 2.84744 16.1223 3.5M4.19552 8.70641C4.14448 8.97224 4.10314 9.24612 4.07185 9.52796C3.97762 10.3766 3.97449 11.2975 4.07185 12.2879C4.18676 13.4567 4.44163 14.5306 4.80331 15.5M19.7899 8.70641C20.0108 9.78407 20.0629 10.983 19.9204 12.2879C19.7963 13.4241 19.5089 14.5049 19.1 15.5M7.77764 19.8133C9.09426 20.9107 10.5935 21.5 11.9961 21.5C13.3661 21.5 14.8282 20.8442 16.1223 19.7214" stroke="black" stroke-width="1.5" stroke-linecap="round" stroke-linejoin="round"/>
</svg>
