<svg width="24" height="24" viewBox="0 0 24 24" fill="none" xmlns="http://www.w3.org/2000/svg">
<path d="M11.8389 2.07629C12.2485 2.01551 12.6305 2.29856 12.6914 2.70813L13.3818 7.3634C13.4276 7.67159 13.5982 7.98157 13.8711 8.25208C14.1429 8.52139 14.4709 8.88126 14.7363 9.27942C14.9896 9.65941 15.2519 10.1719 15.252 10.7277C15.252 11.6816 14.5306 12.3212 13.9463 12.6681C13.4029 12.9906 12.7489 13.202 12.2197 13.2443C10.9619 14.1096 9.29522 14.114 8.03027 13.2404C7.55853 13.2046 6.94309 13.0783 6.39258 12.8009C5.71806 12.4609 5 11.8099 5 10.7277C5.00006 9.61133 5.80192 8.73553 6.3252 8.26672C6.6931 7.93705 6.92307 7.57058 6.97656 7.21008L7.64453 2.70813C7.7055 2.29867 8.08656 2.01563 8.49609 2.07629C8.90567 2.1372 9.18867 2.51921 9.12793 2.92883L8.45996 7.43079C8.33757 8.25456 7.84997 8.91456 7.32617 9.38391C6.8412 9.8184 6.50007 10.3063 6.5 10.7277C6.5 11.0208 6.66384 11.2582 7.06836 11.462C7.48293 11.6708 8.00069 11.753 8.30273 11.7531C8.51101 11.7531 8.6991 11.8385 8.83496 11.9757L8.84082 11.9796C9.63527 12.5548 10.7146 12.5325 11.4854 11.9259C11.6011 11.8348 11.7356 11.7846 11.8721 11.7706C11.9237 11.7594 11.9772 11.7531 12.0322 11.7531C12.2656 11.7531 12.7528 11.632 13.1807 11.3781C13.6334 11.1092 13.752 10.8612 13.752 10.7277C13.7519 10.6187 13.6878 10.4108 13.4883 10.1115C13.301 9.8304 13.0496 9.55056 12.8145 9.3175C12.3659 8.87285 12.0019 8.28071 11.8984 7.58411L11.207 2.92883C11.1463 2.51926 11.4294 2.13726 11.8389 2.07629Z" fill="black"/>
<path d="M12.7646 17.2646C13.5041 17.3627 13.8286 17.7562 14.4951 18.2334C14.8724 18.5036 15.2606 18.7609 15.5977 18.9805C15.055 19.3 14.332 19.6924 13.5322 20.0254C12.5248 20.4449 11.4532 20.75 10.5 20.75C8.39243 20.75 6.99229 19.7881 5.49414 18.9199C5.80829 18.7139 6.16126 18.4794 6.50488 18.2334C7.1714 17.7562 7.49589 17.3627 8.23535 17.2646C8.54512 17.2237 8.78188 17.2721 9.11426 17.3623C9.44631 17.4524 9.9089 17.5977 10.5 17.5977C11.0911 17.5977 11.5537 17.4524 11.8857 17.3623C12.2181 17.2721 12.4549 17.2237 12.7646 17.2646Z" stroke="black" stroke-width="1.5"/>
<path d="M19.75 13H20.75M21.75 13H20.75M20.75 13V17.5M19.75 17.5H21.75" stroke="black" stroke-width="1.5" stroke-linecap="round"/>
<path d="M13 13L17 13" stroke="black" stroke-width="1.5" stroke-linecap="round" stroke-dasharray="1.8 2.5"/>
<path d="M14 17.5L17.5 17.5" stroke="black" stroke-width="1.5" stroke-linecap="round" stroke-dasharray="1.8 2.5"/>
</svg>
