<svg width="24" height="24" viewBox="0 0 24 24" fill="none" xmlns="http://www.w3.org/2000/svg">
<path d="M9.01918 4.64C9.4551 3.78667 10.5449 3.78667 10.9808 4.64L17.8466 18.08C18.2825 18.9333 17.7376 20 16.8658 20H3.13424C2.2624 20 1.7175 18.9333 2.15342 18.08L9.01918 4.64Z" stroke="black" stroke-width="1.5"/>
<path d="M15.5002 20H21.2911C21.836 20 22.1765 19.3333 21.9041 18.8L18.6858 12.5" stroke="black" stroke-width="1.5" stroke-linecap="round" stroke-dasharray="2.5 2.5"/>
<path d="M18.3241 1.82464C18.3998 1.68499 18.6002 1.68499 18.6759 1.82464L19.9154 4.1129C19.9344 4.14794 19.9634 4.17652 19.9987 4.19495L22.1602 5.32268C22.3035 5.39746 22.3035 5.60254 22.1602 5.67732L19.9987 6.80505C19.9634 6.82348 19.9344 6.85206 19.9154 6.8871L18.6759 9.17536C18.6002 9.31501 18.3998 9.31501 18.3241 9.17536L17.0846 6.8871C17.0656 6.85206 17.0366 6.82348 17.0013 6.80505L14.8398 5.67732C14.6965 5.60254 14.6965 5.39746 14.8398 5.32268L17.0013 4.19495C17.0366 4.17652 17.0656 4.14794 17.0846 4.1129L18.3241 1.82464Z" fill="black"/>
</svg>
