<svg width="24" height="24" viewBox="0 0 24 24" fill="none" xmlns="http://www.w3.org/2000/svg">
<path d="M18.3241 1.82464C18.3998 1.68499 18.6002 1.68499 18.6759 1.82464L19.9154 4.1129C19.9344 4.14794 19.9634 4.17652 19.9987 4.19495L22.1602 5.32268C22.3035 5.39746 22.3035 5.60254 22.1602 5.67732L19.9987 6.80505C19.9634 6.82348 19.9344 6.85206 19.9154 6.8871L18.6759 9.17536C18.6002 9.31501 18.3998 9.31501 18.3241 9.17536L17.0846 6.8871C17.0656 6.85206 17.0366 6.82348 17.0013 6.80505L14.8398 5.67732C14.6965 5.60254 14.6965 5.39746 14.8398 5.32268L17.0013 4.19495C17.0366 4.17652 17.0656 4.14794 17.0846 4.1129L18.3241 1.82464Z" fill="black"/>
<path d="M9.10938 11.2051L9.55562 10.6023C9.35677 10.4551 9.09812 10.4154 8.8643 10.4962C8.63048 10.5771 8.45157 10.768 8.38611 11.0066L9.10938 11.2051ZM11.2051 9.10938L11.0066 8.38611C10.768 8.45157 10.5771 8.63048 10.4962 8.8643C10.4154 9.09812 10.4551 9.35677 10.6023 9.55562L11.2051 9.10938ZM12 9V9.75C13.2426 9.75 14.25 10.7574 14.25 12H15H15.75C15.75 9.92893 14.0711 8.25 12 8.25V9ZM15 12H14.25C14.25 13.2426 13.2426 14.25 12 14.25V15V15.75C14.0711 15.75 15.75 14.0711 15.75 12H15ZM12 15V14.25C10.7574 14.25 9.75 13.2426 9.75 12H9H8.25C8.25 14.0711 9.92893 15.75 12 15.75V15ZM9 12H9.75C9.75 11.7973 9.77927 11.5981 9.83264 11.4035L9.10938 11.2051L8.38611 11.0066C8.30043 11.3189 8.25 11.6517 8.25 12H9ZM9.10938 11.2051L8.66313 11.8079C9.03501 12.0832 9.4975 12.25 10 12.25V11.5V10.75C9.83467 10.75 9.68223 10.696 9.55562 10.6023L9.10938 11.2051ZM10 11.5V12.25C11.2426 12.25 12.25 11.2426 12.25 10H11.5H10.75C10.75 10.4142 10.4142 10.75 10 10.75V11.5ZM11.5 10H12.25C12.25 9.4975 12.0832 9.03501 11.8079 8.66313L11.2051 9.10938L10.6023 9.55562C10.696 9.68223 10.75 9.83467 10.75 10H11.5ZM11.2051 9.10938L11.4035 9.83264C11.5981 9.77927 11.7973 9.75 12 9.75V9V8.25C11.6517 8.25 11.3189 8.30043 11.0066 8.38611L11.2051 9.10938Z" fill="black"/>
<path d="M20.4155 10.5C20.6682 10.9717 21 11.6563 21 12C21 13.6 16.9706 18 12 18C7.02944 18 3 14 3 12C3 10 7.02944 6 12 6C12.2346 6 12.467 6.00891 12.697 6.02609" stroke="black" stroke-width="1.5" stroke-linecap="round"/>
</svg>
