<svg width="24" height="24" viewBox="0 0 24 24" fill="none" xmlns="http://www.w3.org/2000/svg">
<path d="M19.9204 12.2879C19.3544 17.4697 15.3922 21.5 11.9961 21.5C8.60001 21.5 4.63788 18.0455 4.07185 12.2879C3.45231 5.98598 6.90195 2.5 11.9961 2.5C17.0903 2.5 20.5782 6.26595 19.9204 12.2879Z" stroke="black" stroke-width="1.5"/>
<path d="M21.5 21.7422L19.324 19.8068C19.1965 19.6933 19.2605 19.4826 19.4296 19.4592L21 19.2422" stroke="black" stroke-width="1.5" stroke-linecap="round"/>
<path d="M2.15851 21.7422L4.33449 19.8068C4.46202 19.6933 4.39801 19.4826 4.22895 19.4592L2.65851 19.2422" stroke="black" stroke-width="1.5" stroke-linecap="round"/>
<path d="M4 10.083C6.83771 10.5591 9 13.0271 9 16C9 17.0929 8.70782 18.1175 8.19731 19" stroke="black" stroke-width="1.5" stroke-linecap="round" stroke-dasharray="2 3"/>
<path d="M20 10C17.1623 10.4761 15 12.944 15 15.917C15 17.0099 15.2922 18.0345 15.8027 18.917" stroke="black" stroke-width="1.5" stroke-linecap="round" stroke-dasharray="2 3"/>
</svg>
