<svg width="24" height="24" viewBox="0 0 24 24" fill="none" xmlns="http://www.w3.org/2000/svg">
<path d="M2.16416 21.3285L4.96242 21.3286C5.34565 21.3287 5.58644 20.9153 5.39736 20.5819L4.5 19" stroke="black" stroke-width="1.5" stroke-linecap="round"/>
<path d="M21.4928 21.3285L18.8079 21.3286C18.4012 21.3287 18.1646 20.8689 18.4011 20.5379L19.5 19" stroke="black" stroke-width="1.5" stroke-linecap="round"/>
<path d="M19.9204 12.2879C19.8368 13.0535 18.7191 13.794 18.5 14.5C17.2361 18.5727 15.4923 21.5 11.9961 21.5C8.5 21.5 6.7224 18.9187 5.5 14.5C5.30826 13.8069 4.1486 13.0686 4.07185 12.2879C3.45231 5.98598 6.90195 2.5 11.9961 2.5C17.0903 2.5 20.5782 6.26595 19.9204 12.2879Z" stroke="black" stroke-width="1.5"/>
<path d="M4.5 13L7.5 14.5" stroke="black" stroke-width="1.5" stroke-linecap="round"/>
<path d="M19.5 13L16.5 14.5" stroke="black" stroke-width="1.5" stroke-linecap="round"/>
</svg>
