<svg width="20" height="20" viewBox="0 0 20 20" fill="none" xmlns="http://www.w3.org/2000/svg">
<path d="M5.33398 17.1663H14.6667V6.16699H5.33398V17.1663ZM7.58333 14.1667V9.58333C7.58333 9.16912 7.91945 8.83301 8.33366 8.83301C8.74787 8.83301 9.08398 9.16912 9.08398 9.58333V14.1667C9.08398 14.5809 8.74787 14.917 8.33366 14.917C7.91945 14.917 7.58333 14.5809 7.58333 14.1667ZM10.9167 14.1667V9.58333C10.9167 9.16912 11.2528 8.83301 11.667 8.83301C12.0812 8.83301 12.4173 9.16912 12.4173 9.58333V14.1667C12.4173 14.5809 12.0812 14.917 11.667 14.917C11.2528 14.917 10.9167 14.5809 10.9167 14.1667ZM7.41732 4.66634H12.5833V2.83366H7.41732V4.66634ZM14.084 4.66634H17.5003L17.5768 4.67041C17.9551 4.70873 18.2507 5.02827 18.2507 5.41667C18.2507 5.80506 17.9551 6.12461 17.5768 6.16292L17.5003 6.16699H16.1673V17.5C16.1673 18.1443 15.6447 18.667 15.0003 18.667H5.00033C4.35599 18.667 3.83333 18.1443 3.83333 17.5V6.16699H2.50033C2.08611 6.16699 1.75 5.83088 1.75 5.41667C1.75 5.00245 2.08611 4.66634 2.50033 4.66634H5.91667V2.5C5.91667 1.85567 6.43933 1.33301 7.08366 1.33301H12.917C13.5613 1.33301 14.084 1.85567 14.084 2.5V4.66634Z" fill="#F63C55"/>
</svg>
