<svg width="24" height="24" viewBox="0 0 24 24" fill="none" xmlns="http://www.w3.org/2000/svg">
<path d="M14.2988 7.05078C14.8774 6.81146 15.3003 6.67865 15.8516 6.79004C16.4847 6.91802 17.0071 7.27291 17.5059 7.76367C17.756 8.00981 17.9906 8.28019 18.2285 8.56348C18.4586 8.83735 18.7051 9.14002 18.9473 9.4043C19.9804 10.5318 21.0607 11.5919 21.751 12.252C21.8672 12.3631 21.8455 12.5047 21.7744 12.5742C20.9281 13.4017 19.3835 14.8124 17.5762 16.0117C15.7456 17.2263 13.7573 18.1475 12 18.1475C9.9984 18.1475 8.32695 17.3532 6.79297 16.2451C6.02377 15.6895 5.2997 15.0628 4.58887 14.4258C3.88814 13.7978 3.1833 13.1442 2.49512 12.5811C2.31459 12.4331 2.32714 12.1773 2.44727 12.0615C3.13536 11.3984 4.11343 10.4294 5.05273 9.4043C5.29489 9.14002 5.54144 8.83735 5.77148 8.56348C6.00944 8.28019 6.24397 8.00981 6.49414 7.76367C6.99294 7.27291 7.51525 6.91802 8.14844 6.79004C8.69967 6.67865 9.1226 6.81146 9.70117 7.05078C10.2641 7.28365 11.0223 7.64746 12 7.64746C12.9777 7.64746 13.7359 7.28365 14.2988 7.05078Z" stroke="black" stroke-width="1.5"/>
<path d="M3 11.9628C3 11.9628 5.32313 11.8158 7.11429 11.9628C9.19209 12.1333 10.1613 12.9346 12.2571 12.8962C14.1616 12.8613 15.0009 12.1317 16.8857 11.9628C18.4751 11.8204 21 11.9629 21 11.9629" stroke="black" stroke-width="1.5" stroke-linecap="round"/>
<path d="M21.5 8C20.0385 5.27273 17.4067 3 11.7564 3C6.10611 3 4.44872 5.72727 2.5 8" stroke="black" stroke-width="1.5" stroke-linecap="round" stroke-dasharray="2 3"/>
<path d="M21.5 17C20.0385 19.1818 17.4067 21 11.7564 21C6.10611 21 4.44872 18.8182 2.5 17" stroke="black" stroke-width="1.5" stroke-linecap="round" stroke-dasharray="2 3"/>
</svg>
