<svg width="24" height="24" viewBox="0 0 24 24" fill="none" xmlns="http://www.w3.org/2000/svg">
<path d="M11.0898 21.5915L11.0898 2.40866C11.0898 1.90385 11.4937 1.5 11.9985 1.5C12.5033 1.5 12.9072 1.90385 12.9072 2.40866L12.9072 21.5915C12.9072 22.0963 12.5033 22.5002 11.9985 22.5002C11.4937 22.5002 11.0898 22.0963 11.0898 21.5915Z" fill="white"/>
<path d="M1.65234 9.22363L4.449 12.0203L1.65234 14.8271L1.65234 9.22363Z" fill="white"/>
<path d="M7.55775 12.0001C7.55775 9.24383 5.39715 6.99236 2.67116 6.86111H2.40866L2.3178 6.85102C1.86346 6.80054 1.5 6.41688 1.5 5.94235C1.5 5.43754 1.90385 5.03369 2.40866 5.03369H2.77213C6.45726 5.22552 9.37507 8.27459 9.37507 12.0001C9.37507 15.7256 6.25533 18.9665 2.40866 18.9665C1.90385 18.9665 1.5 18.5627 1.5 18.0579C1.5 17.553 1.90385 17.1492 2.40866 17.1492C5.2558 17.1492 7.55775 14.8472 7.55775 12.0001Z" fill="white"/>
<path d="M22.3474 9.22348L19.5508 12.0201L22.3474 14.8168V9.21338V9.22348Z" fill="white"/>
<path d="M16.4423 12.0001C16.4423 9.24383 18.6029 6.99236 21.3289 6.86111H21.5914L21.6823 6.85102C22.1366 6.80054 22.5001 6.41688 22.5001 5.94235C22.5001 5.43754 22.0962 5.03369 21.5914 5.03369H21.2279C17.5428 5.22552 14.625 8.27459 14.625 12.0001C14.625 15.7256 17.7447 18.9665 21.5914 18.9665C22.0962 18.9665 22.5001 18.5627 22.5001 18.0579C22.5001 17.553 22.0962 17.1492 21.5914 17.1492C18.7443 17.1492 16.4423 14.8472 16.4423 12.0001Z" fill="white"/>
</svg>
