<svg width="20" height="20" viewBox="0 0 20 20" fill="none" xmlns="http://www.w3.org/2000/svg">
<path d="M14.167 16.7495L14.2435 16.7536C14.6218 16.7919 14.9173 17.1114 14.9173 17.4998C14.9173 17.8882 14.6218 18.2078 14.2435 18.2461L14.167 18.2502H2.50033C2.08611 18.2502 1.75 17.9141 1.75 17.4998C1.75 17.0856 2.08611 16.7495 2.50033 16.7495H14.167Z" fill="white"/>
<path d="M17.5016 16.7495L17.5781 16.7536C17.9564 16.7919 18.252 17.1114 18.252 17.4998C18.252 17.8882 17.9564 18.2078 17.5781 18.2461L17.5016 18.2502L16.6683 18.2502C16.2541 18.2502 15.918 17.9141 15.918 17.4998C15.918 17.0856 16.2541 16.7495 16.6683 16.7495L17.5016 16.7495Z" fill="white"/>
<path d="M13.6782 1.87613C14.1338 1.4208 14.8722 1.4209 15.3278 1.87613L18.0972 4.64631C18.5243 5.07343 18.5514 5.74895 18.1777 6.20718L18.098 6.29589L9.6963 14.6976C9.60354 14.7902 9.49252 14.8533 9.37485 14.8872C9.2749 14.9378 9.16513 14.9767 9.04526 14.9979L5.74529 15.5806L5.59718 15.5968C4.9128 15.6314 4.3421 15.0613 4.37648 14.3769L4.39357 14.2288L4.97625 10.9289L5.01775 10.7612C5.02527 10.7383 5.03584 10.7166 5.04461 10.6945C5.07161 10.5512 5.14123 10.4139 5.25213 10.303L13.6782 1.87613ZM5.95281 14.0213L8.15333 13.6323L6.34181 11.82L5.95281 14.0213ZM7.15968 10.5163L9.45704 12.8136L14.7655 7.50601L12.4681 5.20865L7.15968 10.5163ZM13.5285 4.14745L15.8259 6.44563L16.8008 5.47069L14.5034 3.17333L13.5285 4.14745Z" fill="white"/>
</svg>
