<svg width="20" height="20" viewBox="0 0 20 20" fill="none" xmlns="http://www.w3.org/2000/svg">
<path d="M15.2416 18.7886H7.13565C6.99674 18.7886 6.86774 18.7166 6.79472 18.5985L2.29453 11.316C2.28336 11.2979 2.27615 11.2777 2.27337 11.2566C2.08274 9.81071 3.85545 8.96736 4.85701 10.0275L6.34417 11.6015C6.46742 11.732 6.68677 11.6447 6.68677 11.4653V5.10676V3.7261C6.68677 2.92579 7.45729 2.3511 8.22439 2.57928C8.73182 2.73023 9.07973 3.1967 9.07973 3.7261V8.94197C9.07973 9.07189 9.18505 9.17722 9.31498 9.17722C9.4449 9.17722 9.55023 9.07189 9.55023 8.94197V2.62492C9.55023 1.98059 10.0726 1.45825 10.7169 1.45825C11.3612 1.45825 11.8836 1.98059 11.8836 2.62492V8.95472C11.8836 9.0776 11.9832 9.17722 12.1061 9.17722C12.2289 9.17722 12.3285 9.0776 12.3285 8.95472V3.64707C12.3285 3.02603 12.8334 2.52331 13.4544 2.52587C14.0718 2.52842 14.571 3.02965 14.571 3.64707V8.96449C14.571 9.08632 14.6711 9.18434 14.7929 9.18175C14.9111 9.17923 15.0056 9.08262 15.0056 8.96435L15.0039 6.41924C15.0034 5.79106 15.5125 5.2816 16.1407 5.2816C16.7686 5.2816 17.2776 5.7906 17.2776 6.41847V13.2967C17.2776 13.3465 17.2701 13.3961 17.2555 13.4437L15.7195 18.4356C15.655 18.6454 15.4611 18.7886 15.2416 18.7886Z" fill="#F0B90B"/>
</svg>
