<svg width="24" height="24" viewBox="0 0 24 24" fill="none" xmlns="http://www.w3.org/2000/svg">
<path d="M14.2988 5.05078C14.8774 4.81146 15.3003 4.67865 15.8516 4.79004C16.4847 4.91802 17.0071 5.27291 17.5059 5.76367C17.756 6.00981 17.9906 6.28019 18.2285 6.56348C18.4586 6.83735 18.7051 7.14002 18.9473 7.4043C19.9804 8.53185 21.0607 9.5919 21.751 10.252C21.8672 10.3631 21.8455 10.5047 21.7744 10.5742C20.9281 11.4017 19.3835 12.8124 17.5762 14.0117C15.7456 15.2263 13.7573 16.1475 12 16.1475C9.9984 16.1475 8.32695 15.3532 6.79297 14.2451C6.02377 13.6895 5.2997 13.0628 4.58887 12.4258C3.88814 11.7978 3.1833 11.1442 2.49512 10.5811C2.31459 10.4331 2.32714 10.1773 2.44727 10.0615C3.13536 9.39836 4.11343 8.42941 5.05273 7.4043C5.29489 7.14002 5.54144 6.83735 5.77148 6.56348C6.00944 6.28019 6.24397 6.00981 6.49414 5.76367C6.99294 5.27291 7.51525 4.91802 8.14844 4.79004C8.69967 4.67865 9.1226 4.81146 9.70117 5.05078C10.2641 5.28365 11.0223 5.64746 12 5.64746C12.9777 5.64746 13.7359 5.28365 14.2988 5.05078Z" stroke="black" stroke-width="1.5"/>
<path d="M3 10.0653C3 10.0653 5.32313 9.91835 7.11429 10.0654C9.19209 10.2359 10.1613 11.0371 12.2571 10.9987C14.1616 10.9638 15.0009 10.2343 16.8857 10.0654C18.4751 9.92292 21 10.0655 21 10.0655" stroke="black" stroke-width="1.5" stroke-linecap="round"/>
<path d="M16.8601 18.7092C18.4168 18.1219 19.9462 17.2816 21.2453 16.2671C21.3788 16.1629 21.577 16.2566 21.577 16.426L21.577 18.7092" stroke="black" stroke-width="1.5" stroke-linecap="round"/>
<path d="M7.35727 18.7092C5.80058 18.1219 4.27119 17.2816 2.97214 16.2671C2.83864 16.1629 2.6404 16.2566 2.6404 16.426L2.6404 18.7092" stroke="black" stroke-width="1.5" stroke-linecap="round"/>
</svg>
