<svg width="24" height="24" viewBox="0 0 24 24" fill="none" xmlns="http://www.w3.org/2000/svg">
<path d="M10 9.5C10 10.3284 9.32843 11 8.5 11C7.67157 11 7 10.3284 7 9.5C7 8.67157 7.67157 8 8.5 8C9.32843 8 10 8.67157 10 9.5Z" fill="white"/>
<path d="M10 9.5C10 10.3284 9.32843 11 8.5 11C7.67157 11 7 10.3284 7 9.5C7 8.67157 7.67157 8 8.5 8C9.32843 8 10 8.67157 10 9.5Z" fill="white"/>
<path d="M17 9.5C17 10.3284 16.3284 11 15.5 11C14.6716 11 14 10.3284 14 9.5C14 8.67157 14.6716 8 15.5 8C16.3284 8 17 8.67157 17 9.5Z" fill="white"/>
<path d="M17 9.5C17 10.3284 16.3284 11 15.5 11C14.6716 11 14 10.3284 14 9.5C14 8.67157 14.6716 8 15.5 8C16.3284 8 17 8.67157 17 9.5Z" fill="white"/>
<path d="M7.69317 17.3457C8.13129 17.5046 8.61237 17.3027 8.81035 16.8916L8.84551 16.8066L8.94121 16.5684L9.05547 16.3252C9.66515 15.1399 10.7822 14.4004 11.9998 14.4004C13.2985 14.4004 14.4821 15.2421 15.0584 16.5684L15.1541 16.8066C15.3236 17.2739 15.8392 17.5151 16.3064 17.3457C16.7737 17.1762 17.0149 16.6606 16.8455 16.1934C16.8035 16.0776 16.7584 15.9635 16.7098 15.8516C15.8927 13.9708 14.1214 12.5996 11.9998 12.5996C9.87817 12.5996 8.10696 13.9708 7.28984 15.8516L7.1541 16.1934L7.12676 16.2812C7.01536 16.7236 7.25511 17.1868 7.69317 17.3457Z" fill="white"/>
<path d="M20.5996 12C20.5996 7.25035 16.7496 3.40039 12 3.40039C7.25035 3.40039 3.40039 7.25035 3.40039 12C3.40039 16.7496 7.25035 20.5996 12 20.5996C16.7496 20.5996 20.5996 16.7496 20.5996 12ZM22.4004 12C22.4004 17.7438 17.7438 22.4004 12 22.4004C6.25624 22.4004 1.59961 17.7438 1.59961 12C1.59961 6.25624 6.25624 1.59961 12 1.59961C17.7438 1.59961 22.4004 6.25624 22.4004 12Z" fill="white"/>
</svg>
