<svg width="24" height="24" viewBox="0 0 24 24" fill="none" xmlns="http://www.w3.org/2000/svg">
<path d="M20.5996 12C20.5996 7.25035 16.7496 3.40039 12 3.40039C7.25035 3.40039 3.40039 7.25035 3.40039 12C3.40039 16.7496 7.25035 20.5996 12 20.5996C16.7496 20.5996 20.5996 16.7496 20.5996 12ZM22.4004 12C22.4004 17.7438 17.7438 22.4004 12 22.4004C6.25624 22.4004 1.59961 17.7438 1.59961 12C1.59961 6.25624 6.25624 1.59961 12 1.59961C17.7438 1.59961 22.4004 6.25624 22.4004 12Z" fill="black"/>
<path d="M11.0996 16.5V15.7998C10.2601 15.618 9.49769 15.2096 8.99316 14.7588L8.86328 14.6367L8.80176 14.5684C8.51329 14.2149 8.53374 13.6928 8.86328 13.3633C9.19284 13.0337 9.71486 13.0133 10.0684 13.3018L10.1367 13.3633L10.2842 13.4932C10.6722 13.7981 11.3474 14.0996 12 14.0996C12.5972 14.0996 13.0559 14.0348 13.3379 13.9033C13.464 13.8445 13.518 13.7883 13.543 13.752C13.5638 13.7215 13.5996 13.6546 13.5996 13.5C13.5996 13.3412 13.5633 13.2723 13.543 13.2422C13.5191 13.2071 13.4678 13.1531 13.3457 13.0957C13.0688 12.9656 12.6119 12.9004 12 12.9004C11.3474 12.9004 10.5559 12.8401 9.90039 12.5342C9.55781 12.3743 9.2211 12.1325 8.97266 11.7705C8.72023 11.4025 8.59963 10.9697 8.59961 10.5C8.59961 10.0301 8.72006 9.59658 8.97266 9.22852C9.22106 8.86664 9.5579 8.6257 9.90039 8.46582C10.273 8.29195 10.6898 8.19848 11.0996 8.14941V7.5C11.0996 7.00294 11.5029 6.59961 12 6.59961C12.4971 6.59961 12.9004 7.00294 12.9004 7.5V8.19922C13.74 8.38099 14.5023 8.79031 15.0068 9.24121L15.1367 9.36328L15.1982 9.43164C15.4866 9.78514 15.4663 10.3072 15.1367 10.6367C14.8072 10.9662 14.2851 10.9866 13.9316 10.6982L13.8633 10.6367L13.7158 10.5059C13.3277 10.201 12.6524 9.89941 12 9.89941C11.4028 9.89941 10.9441 9.96517 10.6621 10.0967C10.5364 10.1554 10.4821 10.2107 10.457 10.2471C10.4362 10.2774 10.4004 10.3449 10.4004 10.5C10.4004 10.6547 10.4362 10.7215 10.457 10.752C10.482 10.7883 10.536 10.8445 10.6621 10.9033C10.9441 11.0348 11.4028 11.0996 12 11.0996C12.6628 11.0996 13.456 11.1595 14.1104 11.4668C14.4533 11.6279 14.7884 11.8711 15.0342 12.2344C15.2832 12.6027 15.4004 13.034 15.4004 13.5C15.4004 13.9697 15.2798 14.4025 15.0273 14.7705C14.7789 15.1325 14.4422 15.3743 14.0996 15.5342C13.7271 15.708 13.3102 15.8005 12.9004 15.8496V16.5C12.9004 16.9971 12.4971 17.4004 12 17.4004C11.5029 17.4004 11.0996 16.9971 11.0996 16.5Z" fill="black"/>
</svg>
