<svg xmlns="http://www.w3.org/2000/svg" width="16" height="16" viewBox="0 0 16 16" fill="none">
    <path d="M2.06641 8.66646C2.06641 8.33509 2.3353 8.0662 2.66667 8.0662C2.99804 8.0662 3.26693 8.33509 3.26693 8.66646C3.26693 11.2806 5.38585 13.3995 8 13.3995C10.6141 13.3995 12.7331 11.2806 12.7331 8.66646C12.7331 6.05231 10.6141 3.93339 8 3.93339H5.44922L6.42448 4.90865L6.4655 4.95422C6.6578 5.18989 6.64418 5.5379 6.42448 5.7576C6.20478 5.97731 5.85676 5.99092 5.62109 5.79862L5.57552 5.7576L3.57552 3.7576C3.34121 3.52329 3.34121 3.14296 3.57552 2.90865L5.57552 0.908646C5.80984 0.674332 6.19016 0.674332 6.42448 0.908646C6.65879 1.14296 6.65879 1.52329 6.42448 1.7576L5.44922 2.73286H8C11.2769 2.73286 13.9336 5.38957 13.9336 8.66646C13.9336 11.9433 11.2769 14.6001 8 14.6001C4.72311 14.6001 2.06641 11.9433 2.06641 8.66646Z" fill="#5B5B5B"/>
</svg>