<svg width="72" height="72" viewBox="0 0 72 72" fill="none" xmlns="http://www.w3.org/2000/svg">
<rect width="72" height="72" rx="36" fill="white" fill-opacity="0.2"/>
<path d="M34.1895 22.0605C35.1344 21.1156 36.75 21.7847 36.75 23.1211V48.8789C36.7496 50.2149 35.1343 50.884 34.1895 49.9395L27 42.75H23.25C22.4216 42.75 21.7501 42.0783 21.75 41.25V30.75C21.75 29.9216 22.4216 29.25 23.25 29.25H27L34.1895 22.0605ZM48.4395 31.1895C49.0252 30.6037 49.9748 30.6037 50.5605 31.1895C51.1462 31.7753 51.1463 32.7248 50.5605 33.3105L47.8711 36L50.5605 38.6895C51.1462 39.2753 51.1463 40.2248 50.5605 40.8105C49.9748 41.3962 49.0252 41.3962 48.4395 40.8105L45.75 38.1211L43.0605 40.8105C42.4748 41.3962 41.5252 41.3962 40.9395 40.8105C40.3537 40.2248 40.3537 39.2752 40.9395 38.6895L43.6289 36L40.9395 33.3105C40.3537 32.7248 40.3537 31.7752 40.9395 31.1895C41.5252 30.6037 42.4748 30.6037 43.0605 31.1895L45.75 33.8789L48.4395 31.1895Z" fill="white"/>
</svg>
