<svg width="29" height="28" viewBox="0 0 29 28" fill="none" xmlns="http://www.w3.org/2000/svg">
<rect x="1.5" y="1" width="26" height="26" rx="13" fill="#FCD535"/>
<rect x="1.5" y="1" width="26" height="26" rx="13" stroke="#272C34" stroke-width="2"/>
<path d="M6.5 14L8.30645 12.1935L10.1129 14L8.30645 15.8065L6.5 14Z" fill="#202630"/>
<path d="M9.59677 10.9032L14.5 6L19.4032 10.9032L17.5968 12.7097L14.5 9.6129L11.4032 12.7097L9.59677 10.9032Z" fill="#202630"/>
<path d="M12.6935 14L14.5 12.1935L16.3065 14L14.5 15.8065L12.6935 14Z" fill="#202630"/>
<path d="M11.4032 15.2903L9.59677 17.0968L14.5 22L19.4032 17.0968L17.5968 15.2903L14.5 18.3871L11.4032 15.2903Z" fill="#202630"/>
<path d="M18.8871 14L20.6936 12.1935L22.5 14L20.6936 15.8065L18.8871 14Z" fill="#202630"/>
</svg>
