<svg width="73" height="72" viewBox="0 0 73 72" fill="none" xmlns="http://www.w3.org/2000/svg">
<rect x="0.5" width="72" height="72" rx="36" fill="#F6465D"/>
<path d="M20.6729 41.4802L20.4016 38.3542C20.2161 36.2176 21.001 34.0609 22.7377 32.6428C25.6943 30.2283 29.1625 28.4998 36.4971 28.5C43.8317 28.5002 47.3473 30.7501 50.2043 32.6428C52.0605 33.8725 52.7803 36.195 52.5975 38.3009L52.3214 41.4802C52.194 42.9469 50.5736 43.884 49.0935 43.347L43.909 41.4662C43.3795 41.2741 43.0024 40.8334 42.9215 40.3124L42.2353 35.9494C42.2226 35.8687 42.1985 35.7878 42.1349 35.7316C41.8521 35.4822 40.755 34.9969 36.4971 34.9864C30.7611 34.9722 30.666 35.8764 30.666 35.8764L30.0601 40.2945C29.9873 40.8252 29.6073 41.2768 29.0691 41.472L23.9008 43.347C22.4207 43.884 20.8002 42.9468 20.6729 41.4802Z" fill="white"/>
</svg>
