<svg width="24" height="24" viewBox="0 0 24 24" fill="none" xmlns="http://www.w3.org/2000/svg">
<path d="M18.2999 21.5V16.947C18.2999 16.895 18.3196 16.8456 18.3558 16.8082C19.2723 15.8634 21 14.0289 21 11.3049C21 6.3 17.6842 2.5 12.45 2.5C9.49816 2.5 7.0993 4.16403 5.36843 7.25C4.35748 9.05243 3.57441 11.2312 3.04214 14.1402C3.01976 14.2625 3.11395 14.375 3.23827 14.375H5.8C5.91046 14.375 6 14.4645 6 14.575V18.1C6 18.9284 6.67157 19.6 7.5 19.6H9.43154C9.542 19.6 9.63154 19.6895 9.63154 19.8V21.5" stroke="black" stroke-width="1.5" stroke-linecap="round"/>
<path d="M6.49998 16.8204C6.49998 16.8204 8.85828 16.8204 10.0052 15.61" stroke="black" stroke-width="1.5" stroke-linecap="round"/>
<circle cx="8.5" cy="10" r="1" fill="black"/>
</svg>
