<svg width="20" height="20" viewBox="0 0 20 20" fill="none" xmlns="http://www.w3.org/2000/svg">
<path d="M16.6675 10.7503L5.14572 10.7503L8.86479 14.4694C9.15769 14.7623 9.15769 15.2377 8.86479 15.5306C8.5719 15.8235 8.09649 15.8235 7.8036 15.5306L2.80359 10.5306L2.75233 10.4736C2.51195 10.179 2.52897 9.74401 2.80359 9.46938L7.80359 4.46938L7.86056 4.41811C8.15514 4.17773 8.59016 4.19475 8.86479 4.46938C9.13942 4.744 9.15644 5.17903 8.91606 5.47361L8.86479 5.53057L5.14572 9.24965L16.6675 9.24965C17.0817 9.24965 17.4179 9.58576 17.4179 9.99998C17.4179 10.4142 17.0817 10.7503 16.6675 10.7503Z" fill="white"/>
</svg>
