<svg width="24" height="24" viewBox="0 0 24 24" fill="none" xmlns="http://www.w3.org/2000/svg">
<path d="M11.1016 19.5V12.9004H4.50195C4.0049 12.9004 3.60156 12.4971 3.60156 12C3.60156 11.5029 4.0049 11.0996 4.50195 11.0996H11.1016V4.5C11.1016 4.00294 11.5049 3.59961 12.002 3.59961C12.499 3.59961 12.9023 4.00294 12.9023 4.5V11.0996H19.502L19.5938 11.1045C20.0477 11.1505 20.4023 11.5339 20.4023 12C20.4023 12.4661 20.0477 12.8495 19.5938 12.8955L19.502 12.9004H12.9023V19.5C12.9023 19.9971 12.499 20.4004 12.002 20.4004C11.5049 20.4004 11.1016 19.9971 11.1016 19.5Z" fill="#5B5B5B"/>
</svg>
