<svg xmlns="http://www.w3.org/2000/svg" width="10" height="10" viewBox="0.7 0.3 8.6 9.4" fill="none">
    <path d="M3.57502 3.15903L4.98403 2.33887L6.39304 3.15903L5.87502 3.46202L4.98403 2.94485L4.09304 3.46202L3.57502 3.15903ZM6.39304 4.19338L5.87502 3.89039L4.98403 4.40756L4.09304 3.89039L3.57502 4.19338V4.79936L4.46601 5.31654V6.35088L4.98403 6.65388L5.50205 6.35088V5.31654L6.39304 4.79936V4.19338ZM6.39304 5.83371V5.22773L5.87502 5.53072V6.1367L6.39304 5.83371ZM6.76083 6.04789L5.86985 6.56507V7.17105L7.27885 6.35088V4.71055L6.76083 5.01355V6.04789ZM6.24282 3.67621L6.76083 3.9792V4.58518L7.27885 4.28219V3.67621L6.76083 3.37322L6.24282 3.67621ZM4.46601 6.78448V7.39046L4.98403 7.69345L5.50205 7.39046V6.78448L4.98403 7.08747L4.46601 6.78448ZM3.57502 5.83371L4.09304 6.1367V5.53072L3.57502 5.22773V5.83371ZM4.46601 3.67621L4.98403 3.9792L5.50205 3.67621L4.98403 3.37322L4.46601 3.67621ZM3.20723 3.9792L3.72524 3.67621L3.20723 3.37322L2.68921 3.67621V4.28219L3.20723 4.58518V3.9792ZM3.20723 5.01355L2.68921 4.71055V6.35088L4.09821 7.17105V6.56507L3.20723 6.04789V5.01355Z" fill="white"/>
</svg>