<svg width="24" height="24" viewBox="0 0 24 24" fill="none" xmlns="http://www.w3.org/2000/svg">
<path d="M10 11C10 11 9.5625 10 8.25 10C6.9375 10 6.5 11 6.5 11" stroke="black" stroke-width="1.5" stroke-linecap="round"/>
<path d="M17.5 11C17.5 11 17.0625 10 15.75 10C14.4375 10 14 11 14 11" stroke="black" stroke-width="1.5" stroke-linecap="round"/>
<path d="M13.75 17C13.75 17 13.3125 18 12 18C10.6875 18 10.25 17 10.25 17" stroke="black" stroke-width="1.5" stroke-linecap="round"/>
<path d="M19.9204 12.2879C19.3544 17.4697 15.3922 21.5 11.9961 21.5C8.60001 21.5 4.63788 18.0455 4.07185 12.2879C3.45231 5.98598 6.90195 2.5 11.9961 2.5C17.0903 2.5 20.5782 6.26595 19.9204 12.2879Z" stroke="black" stroke-width="1.5"/>
<path d="M6.4995 14.9985C6.4995 14.9985 5.66935 15.4998 5.00027 15.4998" stroke="black" stroke-width="1.5" stroke-linecap="round"/>
<path d="M8.50055 18C8.50055 18 8.00192 18.9992 7.50055 19.5" stroke="black" stroke-width="1.5" stroke-linecap="round"/>
<path d="M17.4951 14.9985C17.4951 14.9985 18.3252 15.4998 18.9943 15.4998" stroke="black" stroke-width="1.5" stroke-linecap="round"/>
<path d="M15.494 18C15.494 18 15.9926 18.9992 16.494 19.5" stroke="black" stroke-width="1.5" stroke-linecap="round"/>
</svg>
