<svg width="24" height="24" viewBox="0 0 24 24" fill="none" xmlns="http://www.w3.org/2000/svg">
<path d="M12.1465 3.75769C12.5565 3.70056 12.9358 3.98727 12.9932 4.39734L13.9922 11.5428C14.0345 11.8449 14.1932 12.1451 14.4463 12.3964C14.817 12.7642 15.3123 13.2996 15.7197 13.9003C16.112 14.4787 16.5 15.2278 16.5 16.0009C16.4999 17.1802 15.651 18.0229 14.8623 18.5194C14.1291 18.9809 13.245 19.2742 12.5547 19.3221L12.1787 19.6366C10.8311 20.7614 8.88329 20.8006 7.49121 19.7313L6.95703 19.3212C6.32877 19.2784 5.48609 19.101 4.74121 18.703C3.85403 18.2288 3.00009 17.3721 3 16.0009C3 15.157 3.33856 14.4104 3.73828 13.8192C4.13969 13.2256 4.63615 12.7387 5.03516 12.3964C5.37813 12.1021 5.59356 11.7444 5.64355 11.3876L6.62109 4.39734C6.67847 3.98727 7.05772 3.70056 7.46777 3.75769C7.87782 3.81508 8.16454 4.19434 8.10742 4.60437L7.12891 11.5956C7.01632 12.3998 6.55857 13.0659 6.01172 13.535C5.67087 13.8275 5.28056 14.2162 4.98047 14.66C4.67853 15.1067 4.5 15.561 4.5 16.0009C4.50008 16.6294 4.85599 17.0632 5.44824 17.3798C6.05944 17.7064 6.80793 17.8329 7.25 17.8329C7.46912 17.8329 7.66463 17.9282 7.80176 18.078L8.40527 18.5419C9.24053 19.1834 10.4092 19.1601 11.2178 18.4852L11.7695 18.0243C11.8934 17.9211 12.0409 17.8651 12.1904 17.8534C12.2463 17.8401 12.3044 17.8329 12.3643 17.8329C12.7338 17.8329 13.4437 17.64 14.0635 17.2499C14.6969 16.8511 14.9999 16.4028 15 16.0009C15 15.6902 14.825 15.254 14.4785 14.743C14.1471 14.2544 13.7264 13.795 13.3896 13.4608C12.9417 13.0162 12.6015 12.427 12.5068 11.7509L11.5068 4.60437C11.4497 4.19434 11.7364 3.81508 12.1465 3.75769Z" fill="black"/>
<path d="M20.5 4.75L19.2632 4.33775C19.1337 4.29458 19 4.39097 19 4.52749V19.2225C19 19.359 19.1337 19.4554 19.2632 19.4123L20.5 19" stroke="black" stroke-width="1.5" stroke-linecap="round"/>
</svg>
