<svg width="12" height="12" viewBox="0 0 12 12" fill="none" xmlns="http://www.w3.org/2000/svg">
<path fill-rule="evenodd" clip-rule="evenodd" d="M6 4.5C6.82843 4.5 7.5 3.82843 7.5 3C7.5 2.17157 6.82843 1.5 6 1.5C5.17157 1.5 4.5 2.17157 4.5 3C4.5 3.82843 5.17157 4.5 6 4.5ZM6 5.25C7.24264 5.25 8.25 4.24264 8.25 3C8.25 1.75736 7.24264 0.75 6 0.75C4.75736 0.75 3.75 1.75736 3.75 3C3.75 4.24264 4.75736 5.25 6 5.25Z" fill="white"/>
<path fill-rule="evenodd" clip-rule="evenodd" d="M2.375 8.5C2.375 7.05025 3.55025 5.875 5 5.875L7 5.875C8.44975 5.875 9.625 7.05025 9.625 8.5V10.5C9.625 10.7071 9.45711 10.875 9.25 10.875C9.04289 10.875 8.875 10.7071 8.875 10.5V8.5C8.875 7.46447 8.03553 6.625 7 6.625L5 6.625C3.96447 6.625 3.125 7.46447 3.125 8.5L3.125 10.5C3.125 10.7071 2.95711 10.875 2.75 10.875C2.54289 10.875 2.375 10.7071 2.375 10.5L2.375 8.5Z" fill="white"/>
</svg>
