<svg width="20" height="20" viewBox="0 0 20 20" fill="none" xmlns="http://www.w3.org/2000/svg">
<path fill-rule="evenodd" clip-rule="evenodd" d="M18.5977 14.6876C18.5977 17.1614 16.5923 19.1667 14.1185 19.1667C11.6447 19.1667 9.63932 17.1614 9.63932 14.6876C9.63932 12.2138 11.6447 10.2084 14.1185 10.2084C16.5923 10.2084 18.5977 12.2138 18.5977 14.6876ZM14.1185 17.9167C15.9019 17.9167 17.3477 16.471 17.3477 14.6876C17.3477 12.9042 15.9019 11.4584 14.1185 11.4584C12.3351 11.4584 10.8893 12.9042 10.8893 14.6876C10.8893 16.471 12.3351 17.9167 14.1185 17.9167Z" fill="white"/>
<path fill-rule="evenodd" clip-rule="evenodd" d="M14.0977 12.7708C14.4083 12.7708 14.6602 13.0226 14.6602 13.3333V14.9753L15.3794 15.6945C15.5991 15.9142 15.5991 16.2703 15.3794 16.49C15.1597 16.7097 14.8036 16.7097 14.5839 16.49L13.7219 15.628C13.7219 15.628 13.7219 15.628 13.7219 15.628C13.6023 15.5084 13.5352 15.3463 13.5352 15.1772V13.3333C13.5352 13.0226 13.787 12.7708 14.0977 12.7708Z" fill="white"/>
<path fill-rule="evenodd" clip-rule="evenodd" d="M2.95312 1.75C2.95312 1.47386 3.17698 1.25 3.45312 1.25L15.7948 1.25C16.0709 1.25 16.2948 1.47386 16.2948 1.75V8.36667C16.2948 8.71185 16.015 8.99167 15.6698 8.99167C15.3246 8.99167 15.0448 8.71185 15.0448 8.36667V2.5L4.20313 2.5L4.20313 17.5H8.39479C8.73997 17.5 9.01979 17.7798 9.01979 18.125C9.01979 18.4702 8.73997 18.75 8.39479 18.75H3.45313C3.17698 18.75 2.95313 18.5261 2.95313 18.25L2.95312 1.75Z" fill="white"/>
</svg>
