<svg width="20" height="20" viewBox="0 0 20 20" fill="none" xmlns="http://www.w3.org/2000/svg">
<path d="M6.33276 4.06242C6.33276 3.01538 7.18188 2.16626 8.22892 2.16626C8.39731 2.16626 8.56015 2.19016 8.71558 2.23136C8.96093 1.46858 9.67625 0.91626 10.5206 0.91626C11.5053 0.91626 12.3141 1.66736 12.407 2.62769C12.5376 2.59922 12.6731 2.58293 12.8123 2.58293C13.8593 2.58293 14.7084 3.43205 14.7084 4.47909V5.12524C14.836 5.09815 14.9682 5.08293 15.1039 5.08293C16.151 5.08293 17.0001 5.93205 17.0001 6.97909V13.2771C17.0001 13.3808 16.9859 13.4847 16.9586 13.5847L15.807 17.8067C15.6686 18.3143 15.2076 18.6669 14.6816 18.6669H6.89998C6.49372 18.6669 6.11665 18.4552 5.9047 18.1086L2.15715 11.9758C1.54661 10.9767 1.86759 9.67137 2.87166 9.06893C3.7011 8.57146 4.76261 8.70239 5.44653 9.38631L6.33276 10.2717V4.06242ZM7.83342 11.0774C7.83337 12.1167 6.57618 12.6375 5.84123 11.9026L4.38615 10.4467C4.18884 10.2494 3.88242 10.212 3.64315 10.3555C3.35354 10.5293 3.26113 10.9056 3.43726 11.1938L7.08716 17.1663H14.4268L15.4994 13.234V6.97909C15.4994 6.76047 15.3225 6.58358 15.1039 6.58358C14.8853 6.58358 14.7084 6.76047 14.7084 6.97909V9.58325L14.7043 9.65975C14.666 10.038 14.3465 10.3336 13.9581 10.3336C13.5439 10.3336 13.2078 9.99747 13.2078 9.58325V4.47909C13.2078 4.26047 13.0309 4.08358 12.8123 4.08358C12.5936 4.08358 12.4167 4.26047 12.4167 4.47909V9.16659L12.4127 9.24308C12.3744 9.62137 12.0548 9.91691 11.6664 9.91691C11.2522 9.91691 10.9161 9.5808 10.9161 9.16659V2.81242C10.9161 2.59381 10.7392 2.41691 10.5206 2.41691C10.302 2.41691 10.1251 2.59381 10.1251 2.81242V9.16659L10.121 9.24308C10.0827 9.62137 9.76315 9.91691 9.37476 9.91691C8.96054 9.91691 8.62443 9.5808 8.62443 9.16659V4.06242L8.61711 3.98267C8.58023 3.80224 8.42024 3.66691 8.22892 3.66691C8.01031 3.66691 7.83342 3.84381 7.83342 4.06242V11.0774Z" fill="white"/>
</svg>
