<svg xmlns="http://www.w3.org/2000/svg" width="24" height="24" viewBox="0 0 24 24" fill="none">
    <path d="M20.6016 12C20.6016 7.25035 16.7516 3.40039 12.002 3.40039C7.2523 3.40039 3.40234 7.25035 3.40234 12C3.40234 16.7496 7.2523 20.5996 12.002 20.5996C16.7516 20.5996 20.6016 16.7496 20.6016 12ZM22.4023 12C22.4023 17.7438 17.7457 22.4004 12.002 22.4004C6.25819 22.4004 1.60156 17.7438 1.60156 12C1.60156 6.25624 6.25819 1.59961 12.002 1.59961C17.7457 1.59961 22.4023 6.25624 22.4023 12Z" fill="white"/>
    <path d="M17.3633 5.36323L17.4317 5.30177C17.7852 5.01339 18.3065 5.03439 18.636 5.36392C18.9655 5.69345 18.9865 6.21471 18.6981 6.56821L18.6367 6.63657L6.63658 18.6367C6.28511 18.9881 5.71471 18.9881 5.36323 18.6367C5.01176 18.2852 5.01176 17.7148 5.36323 17.3633L17.3633 5.36323Z" fill="white"/>
</svg>