<svg width="24" height="24" viewBox="0 0 24 24" fill="none" xmlns="http://www.w3.org/2000/svg">
<path d="M9.61424 4.5L8.63612 11.4909C8.55489 12.0715 8.21874 12.5828 7.77378 12.9645C7.03363 13.5995 6 14.7161 6 16C6 18 8.41816 18.5815 9.5 18.5815" stroke="black" stroke-width="1.5" stroke-linecap="round"/>
<path d="M14.5 4.5L15.4998 11.6461C15.5683 12.1353 15.8176 12.5798 16.1682 12.9278C16.8758 13.63 18 14.9162 18 16C18 17.5815 15.6961 18.5815 14.6143 18.5815" stroke="black" stroke-width="1.5" stroke-linecap="round"/>
<path d="M9.5 18.6L10.1985 19.1365C11.3122 19.9919 12.8702 19.9603 13.9483 19.0605L14.5 18.6" stroke="black" stroke-width="1.5" stroke-linecap="round"/>
<path d="M3.1582 14L4.33838 12.35C4.45937 12.1809 4.46302 11.9545 4.34755 11.7815L3.1582 10" stroke="black" stroke-width="1.5" stroke-linecap="round"/>
<path d="M20.9082 14L19.728 12.35C19.607 12.1809 19.6034 11.9545 19.7189 11.7815L20.9082 10" stroke="black" stroke-width="1.5" stroke-linecap="round"/>
</svg>
