<svg width="96" height="96" viewBox="0 0 96 96" fill="none" xmlns="http://www.w3.org/2000/svg">
<path d="M29.993 51.7296C30.9595 51.7296 31.7429 52.5132 31.743 53.4796C31.743 54.4461 30.9595 55.2296 29.993 55.2296C29.0266 55.2295 28.243 54.446 28.243 53.4796C28.2431 52.5133 29.0267 51.7297 29.993 51.7296Z" fill="#9C9C9C"/>
<path d="M29.993 36.2296C30.8214 36.2296 31.4929 36.9013 31.493 37.7296V47.7296C31.493 48.558 30.8215 49.2296 29.993 49.2296C29.1647 49.2295 28.493 48.558 28.493 47.7296V37.7296C28.4931 36.9014 29.1648 36.2297 29.993 36.2296Z" fill="#9C9C9C"/>
<path fill-rule="evenodd" clip-rule="evenodd" d="M59.3885 13.5851C63.7639 7.02264 73.9935 10.1197 73.994 18.007C73.994 20.385 72.9512 22.5188 71.2997 23.9796H79.994C82.203 23.9798 83.9939 25.7706 83.994 27.9796V81.9796C83.994 84.1887 82.203 85.9795 79.994 85.9796H26.994L26.788 85.9747C24.6746 85.8675 22.994 84.1197 22.994 81.9796V62.5675C21.1493 61.7882 19.4621 60.7098 17.9921 59.3937L5.7069 71.6808C5.31644 72.0709 4.68328 72.0709 4.29284 71.6808C3.90235 71.2903 3.90242 70.6563 4.29284 70.2657L16.578 57.9796C13.7274 54.795 11.993 50.59 11.993 45.9796C11.9931 38.3985 16.6802 31.9123 23.3143 29.2599C23.2071 29.3027 23.1002 29.3459 22.994 29.3907V27.9796L22.9989 27.7736C23.1028 25.7285 24.7429 24.0883 26.788 23.9845L26.994 23.9796H34.6883C33.0367 22.5188 31.994 20.3852 31.994 18.007C31.9945 10.1196 42.2242 7.02233 46.5995 13.5851L52.994 23.1769L59.3885 13.5851ZM44.994 55.9288C41.7696 60.7808 36.2554 63.9796 29.993 63.9796C28.2584 63.9796 26.5812 63.7335 24.994 63.2755V81.9796C24.994 83.0842 25.8894 83.9796 26.994 83.9796H44.994V55.9288ZM47.9647 46.9796C47.8707 48.6968 47.5362 50.3496 46.994 51.9054V83.9796H58.994V46.9796H47.9647ZM60.994 83.9796H79.994C81.0985 83.9795 81.994 83.0841 81.994 81.9796V46.9796H60.994V83.9796ZM29.993 29.9796C21.1566 29.9797 13.9931 37.1432 13.993 45.9796C13.993 54.8161 21.1566 61.9795 29.993 61.9796C38.8296 61.9796 45.993 54.8162 45.993 45.9796C45.9929 37.1431 38.8295 29.9796 29.993 29.9796ZM46.994 40.0538C47.5363 41.6096 47.8707 43.2625 47.9647 44.9796H58.994V25.9796H46.994V40.0538ZM60.994 44.9796H81.994V27.9796C81.9939 26.8752 81.0984 25.9798 79.994 25.9796H60.994V44.9796ZM26.994 25.9796C25.8895 25.9796 24.9941 26.8751 24.994 27.9796V28.6827C26.5811 28.2248 28.2585 27.9796 29.993 27.9796C36.2553 27.9796 41.7695 31.1786 44.994 36.0304V25.9796H26.994ZM44.9354 14.6945C41.6578 9.77819 33.9945 12.0985 33.994 18.007C33.994 21.3053 36.6683 23.9796 39.9667 23.9796H51.1258L44.9354 14.6945ZM71.994 18.007C71.9935 12.0985 64.3303 9.7785 61.0526 14.6945L54.8622 23.9796H66.0214C69.3196 23.9795 71.994 21.3053 71.994 18.007Z" fill="#9C9C9C"/>
</svg>
