<svg width="24" height="24" viewBox="0 0 24 24" fill="none" xmlns="http://www.w3.org/2000/svg">
<path d="M11.9999 4.75C12.2611 4.75009 12.5034 4.88651 12.6396 5.10938L18.1396 14.1094C18.2808 14.3408 18.2868 14.6307 18.1542 14.8672L18.0986 14.9512C17.9781 15.1109 17.7988 15.2163 17.6005 15.2432L17.4999 15.25H6.49988L6.39929 15.2432C6.20075 15.2164 6.02075 15.1112 5.90027 14.9512L5.84558 14.8672C5.71291 14.6306 5.71888 14.3408 5.86023 14.1094L11.3603 5.10938L11.4159 5.0293C11.5572 4.85408 11.7714 4.75 11.9999 4.75ZM7.8368 13.75H16.163L11.9999 6.93652L7.8368 13.75ZM12.0761 11.7539C12.4545 11.7921 12.7499 12.1115 12.7499 12.5C12.7499 12.9142 12.4141 13.2499 11.9999 13.25C11.5857 13.25 11.2499 12.9142 11.2499 12.5C11.2499 12.0858 11.5857 11.75 11.9999 11.75L12.0761 11.7539ZM11.9999 8.5C12.4141 8.50007 12.7499 8.83583 12.7499 9.25V10.75C12.7499 11.1642 12.4141 11.4999 11.9999 11.5L11.9228 11.4961C11.5447 11.4575 11.2499 11.1382 11.2499 10.75V9.25C11.2499 8.83579 11.5857 8.5 11.9999 8.5Z" fill="white"/>
<path d="M16.543 18.2998L16.5039 18.3076C16.4914 18.3129 16.4803 18.3211 16.4707 18.3311L13.083 21.8682L12.9688 21.9766C12.4113 22.4493 11.5887 22.4493 11.0312 21.9766L10.917 21.8682L7.5293 18.3311C7.51973 18.3211 7.5086 18.3129 7.49609 18.3076L7.45703 18.2998V16.5C7.91053 16.5 8.34736 16.6618 8.68945 16.9531L8.83008 17.0859L12 20.3975L15.1699 17.0859L15.3105 16.9531C15.6526 16.6618 16.0895 16.5 16.543 16.5V18.2998ZM22.5 16.7998L22.4922 16.9531C22.4206 17.6592 21.8594 18.2203 21.1533 18.292L21 18.2998H16.543V16.5H20.7002V3.2998H3.2998V16.5H7.45703V18.2998H3L2.84668 18.292C2.14064 18.2203 1.57941 17.6592 1.50781 16.9531L1.5 16.7998V3C1.5 2.22334 2.09028 1.58461 2.84668 1.50781L3 1.5H21C21.8284 1.5 22.5 2.17157 22.5 3V16.7998Z" fill="white"/>
</svg>
