<svg width="16" height="16" viewBox="0 0 16 16" fill="none" xmlns="http://www.w3.org/2000/svg">
<path d="M3.57417 7.90882C3.80849 7.6745 4.18882 7.6745 4.42313 7.90882L7.99866 11.4843L11.5742 7.90882L11.6198 7.8678C11.8554 7.67551 12.2035 7.68912 12.4232 7.90882C12.6428 8.12853 12.6565 8.47656 12.4642 8.71221L12.4232 8.75778L8.42314 12.7578C8.20345 12.9775 7.85542 12.9911 7.61976 12.7988L7.57418 12.7578L3.57417 8.75778C3.33986 8.52347 3.33986 8.14313 3.57417 7.90882ZM3.57417 3.24214C3.80849 3.00783 4.18882 3.00783 4.42313 3.24214L7.99866 6.81767L11.5742 3.24214L11.6198 3.20113C11.8554 3.00883 12.2035 3.02244 12.4232 3.24214C12.6428 3.46185 12.6565 3.80988 12.4642 4.04553L12.4232 4.0911L8.42314 8.09111C8.20345 8.3108 7.85542 8.32439 7.61976 8.13213L7.57418 8.09111L3.57417 4.0911C3.33986 3.85679 3.33986 3.47646 3.57417 3.24214Z" fill="black"/>
</svg>
