<svg width="24" height="24" viewBox="0 0 24 24" fill="none" xmlns="http://www.w3.org/2000/svg">
<path d="M11.1016 21.2998V18C11.1016 17.5029 11.5049 17.0996 12.002 17.0996C12.468 17.0996 12.8515 17.4543 12.8975 17.9082L12.9023 18V21.2998L12.8975 21.3916C12.8516 21.8456 12.4681 22.2002 12.002 22.2002C11.5358 22.2002 11.1523 21.8456 11.1064 21.3916L11.1016 21.2998Z" fill="white"/>
<path d="M21.4745 3.79796L21.536 3.7296C21.8244 3.3761 21.8041 2.85418 21.4745 2.52462C21.1449 2.19506 20.623 2.17469 20.2695 2.46316L20.2012 2.52462L2.52348 20.2023C2.17201 20.5538 2.17201 21.1242 2.52348 21.4756C2.87496 21.8271 3.44536 21.8271 3.79683 21.4756L21.4745 3.79796Z" fill="white"/>
<path d="M14.6016 8.28027V6.2002C14.6016 4.76426 13.4379 3.60059 12.002 3.60059C10.566 3.60059 9.40234 4.76426 9.40234 6.2002V12.8799C9.40242 13.3146 9.59996 13.7255 9.93945 13.9971L8.81445 15.4033C8.04798 14.7901 7.60164 13.8615 7.60156 12.8799V6.2002C7.60156 3.77014 9.5719 1.7998 12.002 1.7998C14.432 1.7998 16.4023 3.77014 16.4023 6.2002V8.28027C16.4022 8.77719 15.9989 9.17969 15.502 9.17969C15.005 9.17969 14.6017 8.77719 14.6016 8.28027Z" fill="white"/>
<path d="M18.6016 11.5C18.6016 11.0029 19.0049 10.5996 19.502 10.5996C19.999 10.5996 20.4023 11.0029 20.4023 11.5C20.4023 15.384 16.8407 18.9004 12.002 18.9004C11.2098 18.9004 10.4523 18.8065 9.73926 18.6328L9.95312 17.7588L10.166 16.8838C10.7378 17.0231 11.3517 17.0996 12.002 17.0996C15.9997 17.0996 18.6016 14.2434 18.6016 11.5ZM9.07812 17.5459C9.19578 17.063 9.68308 16.7661 10.166 16.8838L9.73926 18.6328C9.25668 18.515 8.96073 18.0286 9.07812 17.5459ZM3.60156 11.5C3.60156 11.0029 4.0049 10.5996 4.50195 10.5996C4.99901 10.5996 5.40234 11.0029 5.40234 11.5C5.40234 12.979 6.14554 14.4803 7.47266 15.5625L7.74609 15.7725L7.81738 15.8311C8.15688 16.1358 8.21703 16.6538 7.94238 17.0303C7.66764 17.4069 7.15557 17.5079 6.76172 17.2773L6.68555 17.2275L6.33691 16.959C4.64096 15.5759 3.60156 13.5857 3.60156 11.5Z" fill="white"/>
</svg>
