<svg width="24" height="24" viewBox="0 0 24 24" fill="none" xmlns="http://www.w3.org/2000/svg">
<path d="M8.48 5.95027C8.87 5.39027 9.72 5.39027 10.11 5.95027L10.19 6.08027L12.5 10.6603L16.58 12.9403L16.7 13.0203C17.22 13.4203 17.22 14.2103 16.7 14.6103L16.58 14.6903L12.5 16.9703L10.19 21.5503C9.84 22.2403 8.9 22.2803 8.48 21.6803L8.4 21.5503L6.08 16.9703L2.01 14.6803C1.33 14.3003 1.33 13.3203 2.01 12.9303L6.09 10.6503L8.41 6.07027L8.49 5.94027L8.48 5.95027ZM7.58 11.6903C7.51 11.8203 7.42 11.9403 7.3 12.0303L7.18 12.1103L4.14 13.8103L7.18 15.5103L7.3 15.5903C7.38 15.6503 7.45 15.7203 7.5 15.8003L7.58 15.9303L9.29 19.3103L11 15.9303L11.08 15.8003C11.17 15.6803 11.28 15.5803 11.41 15.5103L14.45 13.8103L11.41 12.1103C11.28 12.0403 11.17 11.9403 11.08 11.8103L11 11.6803L9.29 8.30027L7.58 11.6803V11.6903Z" fill="white"/>
<path d="M16.5208 1.86945C16.9208 1.37945 17.6708 1.37945 18.0708 1.86945L18.1508 1.97945L19.4508 4.09945L21.6308 5.45945L21.7408 5.53945C22.2208 5.93945 22.2208 6.67945 21.7408 7.07945L21.6308 7.15945L19.4508 8.51945L18.1508 10.6395C17.7608 11.2795 16.8408 11.2795 16.4408 10.6395L15.1408 8.51945L12.9608 7.15945C12.3308 6.76945 12.3308 5.84945 12.9608 5.45945L15.1408 4.09945L16.4408 1.97945L16.5208 1.86945ZM16.5708 5.19945C16.5108 5.29945 16.4308 5.38945 16.3408 5.45945L16.2508 5.52945L15.0008 6.30945L16.2508 7.08945L16.3408 7.15945C16.4008 7.20945 16.4608 7.25945 16.5008 7.31945L16.5708 7.41945L17.2908 8.58945L18.0108 7.41945L18.0808 7.31945C18.1508 7.22945 18.2408 7.14945 18.3408 7.08945L19.5908 6.30945L18.3408 5.52945C18.2408 5.46945 18.1508 5.38945 18.0808 5.29945L18.0108 5.19945L17.2908 4.02945L16.5708 5.19945Z" fill="white"/>
</svg>
