<svg width="20" height="20" viewBox="0 0 20 20" fill="none" xmlns="http://www.w3.org/2000/svg">
<path d="M15.1669 12.1396L17.3072 10.0001L15.1669 7.85977V4.83324H12.1396L10.0001 2.69294L7.85977 4.83324H4.83324V7.85977L2.69294 10.0001L4.83324 12.1396V15.1669H7.85977L10.0001 17.3072L12.1396 15.1669H15.1669V12.1396ZM16.6667 7.23884L18.5442 9.11628C19.0321 9.60445 19.0323 10.3958 18.5442 10.8839L16.6667 12.7613V15.4167L16.6602 15.5445C16.6004 16.1327 16.1327 16.6004 15.5445 16.6602L15.4167 16.6667H12.7613L10.8839 18.5442L10.7886 18.6296C10.3305 19.0033 9.66972 19.0032 9.21149 18.6296L9.11628 18.5442L7.23884 16.6667H4.5834L4.45563 16.6602C3.86733 16.6005 3.39973 16.1328 3.33991 15.5445L3.3334 15.4167V12.7613L1.45596 10.8839C0.967805 10.3957 0.967806 9.60444 1.45596 9.11628L3.3334 7.23884V4.5834C3.3334 3.93615 3.82526 3.40387 4.45563 3.33991L4.5834 3.3334H7.23884L9.11628 1.45596C9.60443 0.967805 10.3957 0.967805 10.8839 1.45596L12.7613 3.3334H15.4167C16.107 3.33351 16.6667 3.89311 16.6667 4.5834V7.23884Z" fill="#F0B90B"/>
<path d="M12.0837 10.8334C12.774 10.8334 13.3337 11.3931 13.3337 12.0834C13.3337 12.7738 12.774 13.3334 12.0837 13.3334C11.3933 13.3334 10.8337 12.7738 10.8337 12.0834C10.8337 11.3931 11.3933 10.8334 12.0837 10.8334ZM12.0299 6.91496C12.3245 6.67463 12.7596 6.69162 13.0342 6.96623C13.3088 7.24084 13.3258 7.67588 13.0854 7.97046L13.0342 8.02743L8.02767 13.0339C7.73478 13.3268 7.25936 13.3268 6.96647 13.0339C6.67358 12.741 6.67358 12.2656 6.96647 11.9727L11.973 6.96623L12.0299 6.91496ZM7.91699 6.66675C8.60735 6.66675 9.16699 7.22639 9.16699 7.91675C9.16699 8.6071 8.60735 9.16675 7.91699 9.16675C7.22664 9.16675 6.66699 8.6071 6.66699 7.91675C6.66699 7.22639 7.22664 6.66675 7.91699 6.66675Z" fill="#F0B90B"/>
<path d="M15.1669 12.1396L17.3072 10.0001L15.1669 7.85977V4.83324H12.1396L10.0001 2.69294L7.85977 4.83324H4.83324V7.85977L2.69294 10.0001L4.83324 12.1396V15.1669H7.85977L10.0001 17.3072L12.1396 15.1669H15.1669V12.1396ZM16.6667 7.23884L18.5442 9.11628C19.0321 9.60445 19.0323 10.3958 18.5442 10.8839L16.6667 12.7613V15.4167L16.6602 15.5445C16.6004 16.1327 16.1327 16.6004 15.5445 16.6602L15.4167 16.6667H12.7613L10.8839 18.5442L10.7886 18.6296C10.3305 19.0033 9.66972 19.0032 9.21149 18.6296L9.11628 18.5442L7.23884 16.6667H4.5834L4.45563 16.6602C3.86733 16.6005 3.39973 16.1328 3.33991 15.5445L3.3334 15.4167V12.7613L1.45596 10.8839C0.967805 10.3957 0.967806 9.60444 1.45596 9.11628L3.3334 7.23884V4.5834C3.3334 3.93615 3.82526 3.40387 4.45563 3.33991L4.5834 3.3334H7.23884L9.11628 1.45596C9.60443 0.967805 10.3957 0.967805 10.8839 1.45596L12.7613 3.3334H15.4167C16.107 3.33351 16.6667 3.89311 16.6667 4.5834V7.23884Z" fill="#F0B90B"/>
<path d="M12.0837 10.8334C12.774 10.8334 13.3337 11.3931 13.3337 12.0834C13.3337 12.7738 12.774 13.3334 12.0837 13.3334C11.3933 13.3334 10.8337 12.7738 10.8337 12.0834C10.8337 11.3931 11.3933 10.8334 12.0837 10.8334ZM12.0299 6.91496C12.3245 6.67463 12.7596 6.69162 13.0342 6.96623C13.3088 7.24084 13.3258 7.67588 13.0854 7.97046L13.0342 8.02743L8.02767 13.0339C7.73478 13.3268 7.25936 13.3268 6.96647 13.0339C6.67358 12.741 6.67358 12.2656 6.96647 11.9727L11.973 6.96623L12.0299 6.91496ZM7.91699 6.66675C8.60735 6.66675 9.16699 7.22639 9.16699 7.91675C9.16699 8.6071 8.60735 9.16675 7.91699 9.16675C7.22664 9.16675 6.66699 8.6071 6.66699 7.91675C6.66699 7.22639 7.22664 6.66675 7.91699 6.66675Z" fill="#F0B90B"/>
</svg>
