<svg xmlns="http://www.w3.org/2000/svg" width="24" height="24" viewBox="0 0 24 24" fill="none">
  <path d="M11 15.0996C11.4971 15.0996 11.9004 15.5029 11.9004 16C11.9004 16.4971 11.4971 16.9004 11 16.9004H8.5C8.00294 16.9004 7.59961 16.4971 7.59961 16C7.59961 15.5029 8.00294 15.0996 8.5 15.0996H11Z" fill="white"/>
  <path d="M14 11.0996C14.4971 11.0996 14.9004 11.5029 14.9004 12C14.9004 12.4971 14.4971 12.9004 14 12.9004H8.5C8.00294 12.9004 7.59961 12.4971 7.59961 12C7.59961 11.5029 8.00294 11.0996 8.5 11.0996H14Z" fill="white"/>
  <path d="M15.5 7.09961C15.9971 7.09961 16.4004 7.50294 16.4004 8C16.4004 8.49706 15.9971 8.90039 15.5 8.90039L8.5 8.90039C8.00294 8.90039 7.59961 8.49706 7.59961 8C7.59961 7.50294 8.00294 7.09961 8.5 7.09961L15.5 7.09961Z" fill="white"/>
  <path d="M20.9004 12C20.9004 12.4971 20.4971 12.9004 20 12.9004C19.5029 12.9004 19.0996 12.4971 19.0996 12V3.40039H4.90039V20.5996H13C13.4971 20.5996 13.9004 21.0029 13.9004 21.5C13.9004 21.9971 13.4971 22.4004 13 22.4004H4.5C3.7268 22.4004 3.09961 21.7732 3.09961 21V3C3.09961 2.2268 3.7268 1.59961 4.5 1.59961H19.5C20.2732 1.59961 20.9004 2.2268 20.9004 3V12Z" fill="white"/>
  <path d="M18.3241 14.3246C18.3998 14.185 18.6002 14.185 18.6759 14.3246L20.096 16.9462C20.1149 16.9813 20.144 17.0099 20.1793 17.0283L22.6602 18.3227C22.8035 18.3975 22.8035 18.6025 22.6602 18.6773L20.1793 19.9717C20.144 19.9901 20.1149 20.0187 20.096 20.0538L18.6759 22.6754C18.6002 22.815 18.3998 22.815 18.3241 22.6754L16.904 20.0538C16.8851 20.0187 16.856 19.9901 16.8207 19.9717L14.3398 18.6773C14.1965 18.6025 14.1965 18.3975 14.3398 18.3227L16.8207 17.0283C16.856 17.0099 16.8851 16.9813 16.904 16.9462L18.3241 14.3246Z" fill="white"/>
</svg>
