<svg width="24" height="24" viewBox="0 0 24 24" fill="none" xmlns="http://www.w3.org/2000/svg">
<path d="M4.63855 9.86328C4.28707 9.51188 3.71656 9.51183 3.36511 9.86328L0.865098 12.3633C0.513717 12.7147 0.513717 13.2853 0.865098 13.6367C1.21655 13.9882 1.78706 13.9881 2.13854 13.6367L3.1278 12.6475C3.45959 17.2604 7.30437 20.9003 12.0019 20.9004C14.1175 20.9004 16.0626 20.1609 17.5898 18.9277L17.8896 18.6748L17.955 18.6104C18.2647 18.2755 18.2769 17.7537 17.9687 17.4043C17.6604 17.0551 17.1411 17.0021 16.7704 17.2676L16.6982 17.3252L16.4589 17.5273C15.2401 18.5116 13.6906 19.0996 12.0019 19.0996C8.31999 19.0995 5.29411 16.2972 4.93835 12.709L5.86511 13.6367L5.93347 13.6982C6.28695 13.9867 6.809 13.9662 7.13856 13.6367C7.46811 13.3072 7.48853 12.7851 7.20008 12.4316L7.13856 12.3633L4.63855 9.86328ZM12.0019 3.09961C9.88624 3.09964 7.9411 3.83912 6.41394 5.07227L6.11414 5.3252L6.04871 5.38965C5.73908 5.72446 5.72686 6.24636 6.03504 6.5957C6.34327 6.94493 6.86256 6.9978 7.23328 6.73242L7.30555 6.6748L7.54481 6.47266C8.76361 5.48842 10.3132 4.90042 12.0019 4.90039C15.6838 4.90039 18.7116 7.70268 19.0673 11.291L18.1386 10.3633C17.7871 10.0119 17.2166 10.0118 16.8651 10.3633C16.5138 10.7147 16.5138 11.2853 16.8651 11.6367L19.3652 14.1367C19.7166 14.4882 20.2871 14.4881 20.6386 14.1367L23.1386 11.6367L23.2001 11.5684C23.4886 11.2149 23.4682 10.6928 23.1386 10.3633C22.809 10.0338 22.287 10.0133 21.9335 10.3018L21.8652 10.3633L20.8769 11.3516C20.5446 6.739 16.6991 3.09961 12.0019 3.09961Z" fill="white"/>
</svg>
