<svg width="36" height="38" viewBox="0 0 36 38" fill="none" xmlns="http://www.w3.org/2000/svg">
<path fill-rule="evenodd" clip-rule="evenodd" d="M36.0039 28V18C36.0039 17.3787 35.9724 16.7647 35.911 16.1596C35.9056 16.1063 35.8999 16.0531 35.8941 16C34.8992 7.0001 27.269 0 18.0039 0C8.06278 0 0.00390625 8.05887 0.00390625 18V28H10.0039V16H5.1568C6.11881 9.76982 11.5043 5 18.0039 5C24.5035 5 29.889 9.76982 30.851 16H26.0039V28H27.8019C26.0105 29.7554 23.7495 31.0333 21.2248 31.6277C20.4964 30.6404 19.325 30 18.0039 30C15.7948 30 14.0039 31.7909 14.0039 34C14.0039 36.2091 15.7948 38 18.0039 38C19.633 38 21.0346 37.0261 21.6583 35.6288C26.36 34.6592 30.3916 31.8561 32.9728 28H36.0039Z" fill="#202630"/>
</svg>
