<svg width="72" height="72" viewBox="0 0 72 72" fill="none" xmlns="http://www.w3.org/2000/svg">
<rect width="72" height="72" rx="36" fill="#2EBD85"/>
<path d="M49.3524 44.9935L47.3339 47.3958C45.9543 49.0377 43.8743 50.0077 41.6435 49.7825C37.8456 49.3991 34.171 48.169 28.9847 42.9825C23.7985 37.7961 22.9036 33.7192 22.2217 30.3607C21.7786 28.1786 22.9119 26.0274 24.5303 24.6676L26.9737 22.6147C28.1008 21.6677 29.9093 22.1508 30.5762 23.5771L32.9121 28.573C33.1507 29.0833 33.1058 29.6615 32.7946 30.0871L30.1947 33.6575C30.1466 33.7236 30.1064 33.7978 30.1117 33.8825C30.1353 34.2588 30.5679 35.3778 33.5713 38.396C37.6172 42.4619 38.3238 41.8899 38.3238 41.8899L41.8763 39.1942C42.3031 38.8704 42.8911 38.8198 43.4097 39.0623L48.3901 41.391C49.8164 42.0579 50.2995 43.8664 49.3524 44.9935Z" fill="#EDEDED"/>
</svg>
