<svg width="72" height="72" viewBox="0 0 72 72" fill="none" xmlns="http://www.w3.org/2000/svg">
<rect width="72" height="72" rx="36" fill="white"/>
<path d="M34.1895 22.0605C35.1344 21.1156 36.75 21.7847 36.75 23.1211V48.8789C36.7496 50.2149 35.1343 50.884 34.1895 49.9395L27 42.75H23.25C22.4216 42.75 21.7501 42.0783 21.75 41.25V30.75C21.75 29.9216 22.4216 29.25 23.25 29.25H27L34.1895 22.0605ZM43.8828 24.9375C44.4353 24.3203 45.3837 24.2678 46.001 24.8203C49.0669 27.5647 50.9999 31.5578 51 36C50.9999 40.4423 49.0671 44.4363 46.001 47.1807C45.3839 47.7328 44.4353 47.6802 43.8828 47.0635C43.3304 46.4463 43.383 45.4978 44 44.9453C46.4571 42.746 47.9999 39.5535 48 36C47.9999 32.4466 46.457 29.255 44 27.0557C43.3828 26.5032 43.3303 25.5548 43.8828 24.9375ZM40.1797 29.5938C40.7597 29.0025 41.7093 28.9934 42.3008 29.5732C43.9647 31.2047 44.9997 33.4823 45 35.999C45 38.5161 43.9649 40.7951 42.3008 42.4268C41.7093 43.0066 40.7597 42.9974 40.1797 42.4062C39.5999 41.8148 39.609 40.8651 40.2002 40.2852C41.3126 39.1945 42 37.6776 42 35.999C41.9997 34.3208 41.3124 32.8053 40.2002 31.7148C39.6089 31.1349 39.5998 30.1852 40.1797 29.5938Z" fill="#202630"/>
</svg>
