<svg width="72" height="72" viewBox="0 0 72 72" fill="none" xmlns="http://www.w3.org/2000/svg">
<rect width="72" height="72" rx="36" fill="white"/>
<path d="M30 27C30 23.6863 32.6863 21 36 21C39.3137 21 42 23.6863 42 27V34.5C42 37.8137 39.3137 40.5 36 40.5C32.6863 40.5 30 37.8137 30 34.5V27Z" fill="#202630"/>
<path d="M26.6489 34.5C26.9251 34.5 27.1472 34.7243 27.1626 35C27.4219 39.6551 31.2796 43.3505 35.9995 43.3506C40.7194 43.3506 44.5771 39.6551 44.8364 35C44.8518 34.7243 45.074 34.5 45.3501 34.5H47.6489C47.9249 34.5 48.1501 34.7243 48.1392 35C47.8992 40.9241 43.4171 45.7522 37.6489 46.5352V50.6494C37.6489 50.9256 37.4251 51.1494 37.1489 51.1494H34.8501C34.574 51.1494 34.3501 50.9255 34.3501 50.6494V46.5352C28.582 45.7521 24.0999 40.9241 23.8599 35C23.849 34.7243 24.0742 34.5 24.3501 34.5H26.6489Z" fill="#202630"/>
</svg>
