<svg width="72" height="72" viewBox="0 0 72 72" fill="none" xmlns="http://www.w3.org/2000/svg">
<rect width="72" height="72" rx="36" fill="white" fill-opacity="0.2"/>
<path d="M30 27C30 23.6863 32.6863 21 36 21C39.3137 21 42 23.6863 42 27V30L32.25 39.184C30.8783 38.0844 30 36.3948 30 34.5V27Z" fill="white"/>
<path d="M48.3339 21.3339C48.9782 20.6895 50.0215 20.6895 50.6659 21.3339C51.3103 21.9782 51.3103 23.0215 50.6659 23.6659L23.6659 50.6659C23.0215 51.3103 21.9782 51.3103 21.3339 50.6659C20.6895 50.0215 20.6895 48.9782 21.3339 48.3339L48.3339 21.3339Z" fill="white"/>
<path d="M47.3993 34.5C47.8134 34.5001 48.1509 34.8366 48.1258 35.25C47.772 41.0596 43.3361 45.7631 37.6493 46.5352V50.3994C37.6493 50.8136 37.3134 51.1493 36.8993 51.1494H35.1004C34.6862 51.1494 34.3504 50.8136 34.3504 50.3994V46.5352C33.7176 46.4493 33.1012 46.3117 32.5033 46.1323L35.3011 43.3198C35.5317 43.3378 35.7646 43.3506 35.9998 43.3506C40.6349 43.3505 44.4389 39.7867 44.8197 35.25C44.8543 34.8372 45.1862 34.5 45.6004 34.5H47.3993ZM26.3993 34.5C26.8134 34.5001 27.1454 34.8373 27.18 35.25C27.4412 38.3627 29.3143 41.0166 31.9613 42.3765L29.5531 44.7964C26.3264 42.7735 24.1177 39.278 23.8724 35.25C23.8473 34.8366 24.1863 34.5 24.6004 34.5H26.3993Z" fill="white"/>
</svg>
