<svg width="89" height="88" viewBox="0 0 89 88" fill="none" xmlns="http://www.w3.org/2000/svg">
<rect x="0.5" width="88" height="88" rx="44" fill="black"/>
<rect x="0.755814" y="0.255814" width="87.4884" height="87.4884" rx="43.7442" stroke="white" stroke-opacity="0.3" stroke-width="0.511628"/>
<path d="M14.25 44L21.0806 37.1694L27.9113 44L21.0806 50.8307L14.25 44Z" fill="#F0B90B"/>
<path d="M25.9597 32.2903L44.5 13.75L63.0403 32.2903L56.2097 39.121L44.5 27.4113L32.7903 39.121L25.9597 32.2903Z" fill="#F0B90B"/>
<path d="M37.6694 44L44.5 37.1694L51.3307 44L44.5 50.8307L37.6694 44Z" fill="#F0B90B"/>
<path d="M32.7903 48.879L25.9597 55.7097L44.5 74.25L63.0403 55.7097L56.2097 48.879L44.5 60.5887L32.7903 48.879Z" fill="#F0B90B"/>
<path d="M61.0887 44L67.9194 37.1694L74.75 44L67.9194 50.8307L61.0887 44Z" fill="#F0B90B"/>
</svg>
